<svg class="main-svg" xmlns="http://www.w3.org/2000/svg" xmlns:xlink="http://www.w3.org/1999/xlink" width="700" height="500" viewBox="0 0 700 500"><rect x="0" y="0" width="700" height="500" style="fill: rgb(0, 0, 0); fill-opacity: 0;"/><defs id="defs-2d2861"><g class="clips"><clipPath id="clip2d2861xyplot" class="plotclip"><rect width="525" height="320"/></clipPath><clipPath class="axesclip" id="clip2d2861x"><rect x="80" y="0" width="525" height="500"/></clipPath><clipPath class="axesclip" id="clip2d2861y"><rect x="0" y="100" width="700" height="320"/></clipPath><clipPath class="axesclip" id="clip2d2861xy"><rect x="80" y="100" width="525" height="320"/></clipPath></g><g class="gradients"/></defs><g class="bglayer"><rect class="bg" x="80" y="100" width="525" height="320" style="fill: rgb(0, 0, 0); fill-opacity: 0; stroke-width: 0;"/></g><g class="layer-below"><g class="imagelayer"/><g class="shapelayer"/></g><g class="cartesianlayer"><g class="subplot xy"><g class="layer-subplot"><g class="shapelayer"/><g class="imagelayer"/></g><g class="gridlayer"><g class="x"><path class="xgrid crisp" transform="translate(155.84,0)" d="M0,100v320" style="stroke: rgb(255, 255, 255); stroke-opacity: 1; stroke-width: 1px;"/><path class="xgrid crisp" transform="translate(238.73,0)" d="M0,100v320" style="stroke: rgb(255, 255, 255); stroke-opacity: 1; stroke-width: 1px;"/><path class="xgrid crisp" transform="translate(321.84000000000003,0)" d="M0,100v320" style="stroke: rgb(255, 255, 255); stroke-opacity: 1; stroke-width: 1px;"/><path class="xgrid crisp" transform="translate(404.72,0)" d="M0,100v320" style="stroke: rgb(255, 255, 255); stroke-opacity: 1; stroke-width: 1px;"/><path class="xgrid crisp" transform="translate(487.6,0)" d="M0,100v320" style="stroke: rgb(255, 255, 255); stroke-opacity: 1; stroke-width: 1px;"/><path class="xgrid crisp" transform="translate(570.48,0)" d="M0,100v320" style="stroke: rgb(255, 255, 255); stroke-opacity: 1; stroke-width: 1px;"/></g><g class="y"><path class="ygrid crisp" transform="translate(0,416.3)" d="M80,0h525" style="stroke: rgb(255, 255, 255); stroke-opacity: 1; stroke-width: 1px;"/><path class="ygrid crisp" transform="translate(0,375.26)" d="M80,0h525" style="stroke: rgb(255, 255, 255); stroke-opacity: 1; stroke-width: 1px;"/><path class="ygrid crisp" transform="translate(0,334.22)" d="M80,0h525" style="stroke: rgb(255, 255, 255); stroke-opacity: 1; stroke-width: 1px;"/><path class="ygrid crisp" transform="translate(0,293.19)" d="M80,0h525" style="stroke: rgb(255, 255, 255); stroke-opacity: 1; stroke-width: 1px;"/><path class="ygrid crisp" transform="translate(0,252.15)" d="M80,0h525" style="stroke: rgb(255, 255, 255); stroke-opacity: 1; stroke-width: 1px;"/><path class="ygrid crisp" transform="translate(0,211.12)" d="M80,0h525" style="stroke: rgb(255, 255, 255); stroke-opacity: 1; stroke-width: 1px;"/><path class="ygrid crisp" transform="translate(0,170.07999999999998)" d="M80,0h525" style="stroke: rgb(255, 255, 255); stroke-opacity: 1; stroke-width: 1px;"/><path class="ygrid crisp" transform="translate(0,129.04)" d="M80,0h525" style="stroke: rgb(255, 255, 255); stroke-opacity: 1; stroke-width: 1px;"/></g></g><g class="zerolinelayer"/><path class="xlines-below"/><path class="ylines-below"/><g class="overlines-below"/><g class="xaxislayer-below"/><g class="yaxislayer-below"/><g class="overaxes-below"/><g class="plot" transform="translate(80, 100)" clip-path="url('#clip2d2861xyplot')"><g class="scatterlayer mlayer"><g class="trace scatter tracef700ad" style="stroke-miterlimit: 2;"><g class="fills"><g><path class="js-fill" d="M0,256.73L6.36,253.74L13.4,251.32L20.21,250.38L27.25,251.19L34.06,256L41.1,268.01L48.14,262.66L54.95,269.44L61.99,261.24L68.8,270.41L82.88,290.34L89.24,296.45L96.28,291.79L103.09,295.74L110.13,296.39L116.94,300.78L123.98,296.17L131.02,295.05L137.84,285.37L144.87,294.44L151.69,281.92L158.73,286.55L165.77,293.9L172.35,304L179.39,302.17L186.2,288.41L193.24,288L200.05,272.35L207.09,251.11L214.13,244.13L220.95,262.44L227.98,249.99L234.8,272.92L241.84,261.27L248.88,253.46L255.23,252.97L262.27,251.13L269.09,255.6L276.12,252.54L282.94,255.64L289.98,272.05L297.02,285.81L303.83,263.02L310.87,268.32L317.68,261.67L324.72,258.66L331.76,241.08L338.12,228.06L345.16,246.38L351.97,244.93L359.01,243.96L365.82,255.65L379.9,231.44L386.71,242.84L393.75,236.01L400.56,239.81L407.6,233.84L414.64,241.98L421,246.33L428.04,246.33L434.85,231.59L441.89,234.74L448.7,230.13L455.74,242.28L462.78,245.95L469.59,250.51L476.63,256.71L483.45,255.97L490.48,267.11L497.52,269.07L504.11,267.33L511.15,251.38L517.96,273.11L525,280.28L525,68.49L517.96,44.76L511.15,53.94L504.11,71.96L497.52,60.42L490.48,62.09L483.45,92.97L476.63,83.2L469.59,88.82L462.78,61.95L455.74,45.59L448.7,71.07L441.89,73.43L434.85,80.67L428.04,103.79L421,121.93L414.64,147.92L407.6,150.85L400.56,133.35L393.75,143.82L386.71,151.88L379.9,158.12L372.86,178.53L365.82,159.36L359.01,165.67L351.97,142.32L345.16,127.12L338.12,114.18L331.76,124.42L324.72,104.88L317.68,113.48L310.87,132.33L303.83,124.84L297.02,120.55L289.98,109.09L276.12,99.2L269.09,108.26L262.27,74.44L255.23,73.14L248.88,41.16L241.84,60.37L234.8,41.65L227.98,16L220.95,38.07L214.13,47.35L207.09,44.73L200.05,52.82L193.24,66.12L186.2,73.86L179.39,105.31L172.35,98.19L165.77,107.19L158.73,103.37L151.69,107.03L144.87,101.27L137.84,86.15L131.02,86.35L123.98,96.39L116.94,108.07L110.13,91.77L103.09,88.74L96.28,87.91L89.24,87.54L82.88,94.17L75.84,81.22L68.8,71.63L61.99,68.84L54.95,67.75L48.14,53.42L41.1,51.47L34.06,45.05L27.25,37.54L20.21,17.79L13.4,23.1L6.36,24.57L0,27.62Z" style="fill: rgb(255, 60, 46); fill-opacity: 0.05; stroke-width: 0;"/></g></g><g class="errorbars"/><g class="lines"><path class="js-line" d="M0,27.62L6.36,24.57L13.4,23.1L20.21,17.79L27.25,37.54L34.06,45.05L41.1,51.47L48.14,53.42L54.95,67.75L61.99,68.84L68.8,71.63L75.84,81.22L82.88,94.17L89.24,87.54L96.28,87.91L103.09,88.74L110.13,91.77L116.94,108.07L123.98,96.39L131.02,86.35L137.84,86.15L144.87,101.27L151.69,107.03L158.73,103.37L165.77,107.19L172.35,98.19L179.39,105.31L186.2,73.86L193.24,66.12L200.05,52.82L207.09,44.73L214.13,47.35L220.95,38.07L227.98,16L234.8,41.65L241.84,60.37L248.88,41.16L255.23,73.14L262.27,74.44L269.09,108.26L276.12,99.2L289.98,109.09L297.02,120.55L303.83,124.84L310.87,132.33L317.68,113.48L324.72,104.88L331.76,124.42L338.12,114.18L345.16,127.12L351.97,142.32L359.01,165.67L365.82,159.36L372.86,178.53L379.9,158.12L386.71,151.88L393.75,143.82L400.56,133.35L407.6,150.85L414.64,147.92L421,121.93L428.04,103.79L434.85,80.67L441.89,73.43L448.7,71.07L455.74,45.59L462.78,61.95L469.59,88.82L476.63,83.2L483.45,92.97L490.48,62.09L497.52,60.42L504.11,71.96L511.15,53.94L517.96,44.76L525,68.49" style="vector-effect: non-scaling-stroke; fill: none; stroke: rgb(225, 155, 126); stroke-opacity: 1; stroke-width: 2px; opacity: 1;"/></g><g class="points"/><g class="text"/></g><g class="trace scatter trace44e8cc" style="stroke-miterlimit: 2;"><g class="fills"/><g class="errorbars"/><g class="lines"><path class="js-line" d="M0,256.73L6.36,253.74L13.4,251.32L20.21,250.38L27.25,251.19L34.06,256L41.1,268.01L48.14,262.66L54.95,269.44L61.99,261.24L68.8,270.41L82.88,290.34L89.24,296.45L96.28,291.79L103.09,295.74L110.13,296.39L116.94,300.78L123.98,296.17L131.02,295.05L137.84,285.37L144.87,294.44L151.69,281.92L158.73,286.55L165.77,293.9L172.35,304L179.39,302.17L186.2,288.41L193.24,288L200.05,272.35L207.09,251.11L214.13,244.13L220.95,262.44L227.98,249.99L234.8,272.92L241.84,261.27L248.88,253.46L255.23,252.97L262.27,251.13L269.09,255.6L276.12,252.54L282.94,255.64L289.98,272.05L297.02,285.81L303.83,263.02L310.87,268.32L317.68,261.67L324.72,258.66L331.76,241.08L338.12,228.06L345.16,246.38L351.97,244.93L359.01,243.96L365.82,255.65L379.9,231.44L386.71,242.84L393.75,236.01L400.56,239.81L407.6,233.84L414.64,241.98L421,246.33L428.04,246.33L434.85,231.59L441.89,234.74L448.7,230.13L455.74,242.28L462.78,245.95L469.59,250.51L476.63,256.71L483.45,255.97L490.48,267.11L497.52,269.07L504.11,267.33L511.15,251.38L517.96,273.11L525,280.28" style="vector-effect: non-scaling-stroke; fill: none; stroke: rgb(52, 58, 64); stroke-opacity: 1; stroke-width: 2px; opacity: 1;"/></g><g class="points"/><g class="text"/></g></g></g><g class="overplot"/><path class="xlines-above crisp" d="M0,0" style="fill: none;"/><path class="ylines-above crisp" d="M0,0" style="fill: none;"/><g class="overlines-above"/><g class="xaxislayer-above"><g class="xtick"><text text-anchor="middle" x="0" y="433" transform="translate(155.84,0)" style="font-family: 'Open Sans', verdana, arial, sans-serif; font-size: 12px; fill: rgb(42, 63, 95); fill-opacity: 1; white-space: pre;">2015</text></g><g class="xtick"><text text-anchor="middle" x="0" y="433" transform="translate(238.73,0)" style="font-family: 'Open Sans', verdana, arial, sans-serif; font-size: 12px; fill: rgb(42, 63, 95); fill-opacity: 1; white-space: pre;">2016</text></g><g class="xtick"><text text-anchor="middle" x="0" y="433" transform="translate(321.84000000000003,0)" style="font-family: 'Open Sans', verdana, arial, sans-serif; font-size: 12px; fill: rgb(42, 63, 95); fill-opacity: 1; white-space: pre;">2017</text></g><g class="xtick"><text text-anchor="middle" x="0" y="433" transform="translate(404.72,0)" style="font-family: 'Open Sans', verdana, arial, sans-serif; font-size: 12px; fill: rgb(42, 63, 95); fill-opacity: 1; white-space: pre;">2018</text></g><g class="xtick"><text text-anchor="middle" x="0" y="433" transform="translate(487.6,0)" style="font-family: 'Open Sans', verdana, arial, sans-serif; font-size: 12px; fill: rgb(42, 63, 95); fill-opacity: 1; white-space: pre;">2019</text></g><g class="xtick"><text text-anchor="middle" x="0" y="433" transform="translate(570.48,0)" style="font-family: 'Open Sans', verdana, arial, sans-serif; font-size: 12px; fill: rgb(42, 63, 95); fill-opacity: 1; white-space: pre;">2020</text></g></g><g class="yaxislayer-above"><g class="ytick"><text text-anchor="end" x="79" y="4.199999999999999" transform="translate(0,416.3)" style="font-family: 'Open Sans', verdana, arial, sans-serif; font-size: 12px; fill: rgb(42, 63, 95); fill-opacity: 1; white-space: pre;">−0.8</text></g><g class="ytick"><text text-anchor="end" x="79" y="4.199999999999999" transform="translate(0,375.26)" style="font-family: 'Open Sans', verdana, arial, sans-serif; font-size: 12px; fill: rgb(42, 63, 95); fill-opacity: 1; white-space: pre;">−0.7</text></g><g class="ytick"><text text-anchor="end" x="79" y="4.199999999999999" transform="translate(0,334.22)" style="font-family: 'Open Sans', verdana, arial, sans-serif; font-size: 12px; fill: rgb(42, 63, 95); fill-opacity: 1; white-space: pre;">−0.6</text></g><g class="ytick"><text text-anchor="end" x="79" y="4.199999999999999" transform="translate(0,293.19)" style="font-family: 'Open Sans', verdana, arial, sans-serif; font-size: 12px; fill: rgb(42, 63, 95); fill-opacity: 1; white-space: pre;">−0.5</text></g><g class="ytick"><text text-anchor="end" x="79" y="4.199999999999999" transform="translate(0,252.15)" style="font-family: 'Open Sans', verdana, arial, sans-serif; font-size: 12px; fill: rgb(42, 63, 95); fill-opacity: 1; white-space: pre;">−0.4</text></g><g class="ytick"><text text-anchor="end" x="79" y="4.199999999999999" transform="translate(0,211.12)" style="font-family: 'Open Sans', verdana, arial, sans-serif; font-size: 12px; fill: rgb(42, 63, 95); fill-opacity: 1; white-space: pre;">−0.3</text></g><g class="ytick"><text text-anchor="end" x="79" y="4.199999999999999" transform="translate(0,170.07999999999998)" style="font-family: 'Open Sans', verdana, arial, sans-serif; font-size: 12px; fill: rgb(42, 63, 95); fill-opacity: 1; white-space: pre;">−0.2</text></g><g class="ytick"><text text-anchor="end" x="79" y="4.199999999999999" transform="translate(0,129.04)" style="font-family: 'Open Sans', verdana, arial, sans-serif; font-size: 12px; fill: rgb(42, 63, 95); fill-opacity: 1; white-space: pre;">−0.1</text></g></g><g class="overaxes-above"/></g></g><g class="polarlayer"/><g class="ternarylayer"/><g class="geolayer"/><g class="funnelarealayer"/><g class="pielayer"/><g class="treemaplayer"/><g class="sunburstlayer"/><g class="glimages"/><defs id="topdefs-2d2861"><g class="clips"/><clipPath id="legend2d2861"><rect width="72" height="48" x="0" y="0"/></clipPath></defs><g class="layer-above"><g class="imagelayer"/><g class="shapelayer"/></g><g class="infolayer"><g class="legend" pointer-events="all" transform="translate(615.5, 100)"><rect class="bg" shape-rendering="crispEdges" width="72" height="48" x="0" y="0" style="stroke: rgb(68, 68, 68); stroke-opacity: 1; fill: rgb(0, 0, 0); fill-opacity: 0; stroke-width: 0px;"/><g class="scrollbox" transform="translate(0, 0)" clip-path="url('#legend2d2861')"><g class="groups"><g class="traces" transform="translate(0, 14.5)" style="opacity: 1;"><text class="legendtext user-select-none" text-anchor="start" x="40" y="4.680000000000001" style="font-family: 'Open Sans', verdana, arial, sans-serif; font-size: 12px; fill: rgb(42, 63, 95); fill-opacity: 1; white-space: pre;">Coal</text><g class="layers"><g class="legendfill"><path class="js-fill" d="M5,-2h30v6h-30z" style="stroke-width: 0; fill: rgb(255, 60, 46); fill-opacity: 0.05;"/></g><g class="legendlines"><path class="js-line" d="M5,-2h30" style="fill: none; stroke: rgb(52, 58, 64); stroke-opacity: 1; stroke-width: 2px;"/></g><g class="legendsymbols"><g class="legendpoints"/></g></g><rect class="legendtoggle" pointer-events="all" x="0" y="-9.5" width="66.15625" height="19" style="cursor: pointer; fill: rgb(0, 0, 0); fill-opacity: 0;"/></g><g class="traces" transform="translate(0, 33.5)" style="opacity: 1;"><text class="legendtext user-select-none" text-anchor="start" x="40" y="4.680000000000001" style="font-family: 'Open Sans', verdana, arial, sans-serif; font-size: 12px; fill: rgb(42, 63, 95); fill-opacity: 1; white-space: pre;">BHP</text><g class="layers"><g class="legendfill"/><g class="legendlines"><path class="js-line" d="M5,0h30" style="fill: none; stroke: rgb(225, 155, 126); stroke-opacity: 1; stroke-width: 2px;"/></g><g class="legendsymbols"><g class="legendpoints"/></g></g><rect class="legendtoggle" pointer-events="all" x="0" y="-9.5" width="66.15625" height="19" style="cursor: pointer; fill: rgb(0, 0, 0); fill-opacity: 0;"/></g></g></g><rect class="scrollbar" rx="20" ry="3" width="0" height="0" x="0" y="0" style="fill: rgb(128, 139, 164); fill-opacity: 1;"/></g><g class="g-gtitle"/><g class="g-xtitle"/><g class="g-ytitle"><text class="ytitle" transform="rotate(-90,24.746875000000003,260)" x="24.746875000000003" y="260" text-anchor="middle" style="font-family: 'Open Sans', verdana, arial, sans-serif; font-size: 14px; fill: rgb(42, 63, 95); opacity: 1; font-weight: normal; white-space: pre;">Sentiment Index</text></g></g></svg>