<svg class="main-svg" xmlns="http://www.w3.org/2000/svg" xmlns:xlink="http://www.w3.org/1999/xlink" width="700" height="500" viewBox="0 0 700 500"><rect x="0" y="0" width="700" height="500" style="fill: rgb(0, 0, 0); fill-opacity: 0;"/><defs id="defs-88a3e8"><g class="clips"><clipPath id="clip88a3e8xyplot" class="plotclip"><rect width="540" height="320"/></clipPath><clipPath class="axesclip" id="clip88a3e8x"><rect x="80" y="0" width="540" height="500"/></clipPath><clipPath class="axesclip" id="clip88a3e8y"><rect x="0" y="100" width="700" height="320"/></clipPath><clipPath class="axesclip" id="clip88a3e8xy"><rect x="80" y="100" width="540" height="320"/></clipPath></g><g class="gradients"/></defs><g class="bglayer"><rect class="bg" x="80" y="100" width="540" height="320" style="fill: rgb(0, 0, 0); fill-opacity: 0; stroke-width: 0;"/></g><g class="layer-below"><g class="imagelayer"/><g class="shapelayer"/></g><g class="cartesianlayer"><g class="subplot xy"><g class="layer-subplot"><g class="shapelayer"/><g class="imagelayer"/></g><g class="gridlayer"><g class="x"><path class="xgrid crisp" transform="translate(183.63,0)" d="M0,100v320" style="stroke: rgb(255, 255, 255); stroke-opacity: 1; stroke-width: 1px;"/><path class="xgrid crisp" transform="translate(287.4,0)" d="M0,100v320" style="stroke: rgb(255, 255, 255); stroke-opacity: 1; stroke-width: 1px;"/><path class="xgrid crisp" transform="translate(391.03,0)" d="M0,100v320" style="stroke: rgb(255, 255, 255); stroke-opacity: 1; stroke-width: 1px;"/><path class="xgrid crisp" transform="translate(494.79,0)" d="M0,100v320" style="stroke: rgb(255, 255, 255); stroke-opacity: 1; stroke-width: 1px;"/><path class="xgrid crisp" transform="translate(598.42,0)" d="M0,100v320" style="stroke: rgb(255, 255, 255); stroke-opacity: 1; stroke-width: 1px;"/></g><g class="y"><path class="ygrid crisp" transform="translate(0,415.83)" d="M80,0h540" style="stroke: rgb(255, 255, 255); stroke-opacity: 1; stroke-width: 1px;"/><path class="ygrid crisp" transform="translate(0,376.35)" d="M80,0h540" style="stroke: rgb(255, 255, 255); stroke-opacity: 1; stroke-width: 1px;"/><path class="ygrid crisp" transform="translate(0,336.87)" d="M80,0h540" style="stroke: rgb(255, 255, 255); stroke-opacity: 1; stroke-width: 1px;"/><path class="ygrid crisp" transform="translate(0,297.39)" d="M80,0h540" style="stroke: rgb(255, 255, 255); stroke-opacity: 1; stroke-width: 1px;"/><path class="ygrid crisp" transform="translate(0,257.90999999999997)" d="M80,0h540" style="stroke: rgb(255, 255, 255); stroke-opacity: 1; stroke-width: 1px;"/><path class="ygrid crisp" transform="translate(0,218.44)" d="M80,0h540" style="stroke: rgb(255, 255, 255); stroke-opacity: 1; stroke-width: 1px;"/><path class="ygrid crisp" transform="translate(0,178.95999999999998)" d="M80,0h540" style="stroke: rgb(255, 255, 255); stroke-opacity: 1; stroke-width: 1px;"/><path class="ygrid crisp" transform="translate(0,139.48)" d="M80,0h540" style="stroke: rgb(255, 255, 255); stroke-opacity: 1; stroke-width: 1px;"/></g></g><g class="zerolinelayer"><path class="yzl zl crisp" transform="translate(0,100)" d="M80,0h540" style="stroke: rgb(255, 255, 255); stroke-opacity: 1; stroke-width: 2px;"/></g><path class="xlines-below"/><path class="ylines-below"/><g class="overlines-below"/><g class="xaxislayer-below"/><g class="yaxislayer-below"/><g class="overaxes-below"/><g class="plot" transform="translate(80, 100)" clip-path="url('#clip88a3e8xyplot')"><g class="scatterlayer mlayer"><g class="trace scatter tracee3a883" style="stroke-miterlimit: 2;"><g class="fills"><g><path class="js-fill" d="M540,0L47.41,0L47.41,55.07L51.81,56.83L56.21,63.94L60.19,74.14L64.59,61.23L68.85,69.85L73.25,87.49L77.51,93.81L81.91,91.57L86.31,100.77L90.57,124.99L94.97,132.57L99.23,132.29L108.03,101.45L112.15,112.85L116.55,126.37L120.8,119.25L125.21,110.09L129.46,115.86L133.86,109.17L138.26,126.15L142.52,124L146.92,135.34L151.18,146.5L155.58,169.29L159.98,200.4L163.96,202.25L168.36,212.14L172.62,242.27L177.02,253.15L181.28,259.46L185.68,271.21L190.08,270.29L194.34,272.37L198.74,272.88L203,264.29L207.4,263.91L211.8,258.52L215.77,255.64L220.17,253.32L224.43,252.41L228.83,253.2L233.09,257.82L237.49,269.37L241.89,264.22L246.15,270.75L250.55,262.86L263.61,290.86L267.59,296.74L271.99,292.25L276.25,296.05L280.65,296.68L284.91,300.9L289.31,296.47L293.71,295.39L297.97,286.08L302.37,294.81L306.62,282.76L311.03,287.21L315.43,294.29L319.54,304L323.94,302.24L328.2,289.01L332.6,288.6L336.86,273.55L341.26,253.11L345.66,246.4L349.92,264.02L354.32,252.04L358.58,274.1L362.98,262.89L367.38,255.37L371.36,254.9L375.76,253.14L380.02,257.44L384.42,254.49L388.68,257.47L397.48,286.5L401.74,264.57L406.14,269.67L410.39,263.28L414.79,260.38L419.2,243.47L423.17,230.94L427.57,248.57L436.23,246.24L440.49,257.48L449.29,234.19L453.55,245.16L457.95,238.59L462.21,242.25L466.61,236.5L471.01,244.34L474.98,248.52L479.38,248.52L483.64,234.34L488.04,237.37L492.3,232.93L496.7,244.63L501.1,248.15L505.36,252.54L509.76,258.5L514.02,257.79L518.42,268.51L522.82,270.39L526.94,268.72L531.34,253.38L535.6,274.28L540,281.18" style="fill: rgb(240, 240, 240); fill-opacity: 0.5; stroke-width: 0;"/></g></g><g class="errorbars"/><g class="lines"><path class="js-line" d="M47.41,55.07L51.81,56.83L56.21,63.94L60.19,74.14L64.59,61.23L68.85,69.85L73.25,87.49L77.51,93.81L81.91,91.57L86.31,100.77L90.57,124.99L94.97,132.57L99.23,132.29L108.03,101.45L112.15,112.85L116.55,126.37L120.8,119.25L125.21,110.09L129.46,115.86L133.86,109.17L138.26,126.15L142.52,124L146.92,135.34L151.18,146.5L155.58,169.29L159.98,200.4L163.96,202.25L168.36,212.14L172.62,242.27L177.02,253.15L181.28,259.46L185.68,271.21L190.08,270.29L194.34,272.37L198.74,272.88L203,264.29L207.4,263.91L211.8,258.52L215.77,255.64L220.17,253.32L224.43,252.41L228.83,253.2L233.09,257.82L237.49,269.37L241.89,264.22L246.15,270.75L250.55,262.86L263.61,290.86L267.59,296.74L271.99,292.25L276.25,296.05L280.65,296.68L284.91,300.9L289.31,296.47L293.71,295.39L297.97,286.08L302.37,294.81L306.62,282.76L311.03,287.21L315.43,294.29L319.54,304L323.94,302.24L328.2,289.01L332.6,288.6L336.86,273.55L341.26,253.11L345.66,246.4L349.92,264.02L354.32,252.04L358.58,274.1L362.98,262.89L367.38,255.37L371.36,254.9L375.76,253.14L380.02,257.44L384.42,254.49L388.68,257.47L397.48,286.5L401.74,264.57L406.14,269.67L410.39,263.28L414.79,260.38L419.2,243.47L423.17,230.94L427.57,248.57L436.23,246.24L440.49,257.48L449.29,234.19L453.55,245.16L457.95,238.59L462.21,242.25L466.61,236.5L471.01,244.34L474.98,248.52L479.38,248.52L483.64,234.34L488.04,237.37L492.3,232.93L496.7,244.63L501.1,248.15L505.36,252.54L509.76,258.5L514.02,257.79L518.42,268.51L522.82,270.39L526.94,268.72L531.34,253.38L535.6,274.28L540,281.18" style="vector-effect: non-scaling-stroke; fill: none; stroke: rgb(52, 58, 64); stroke-opacity: 1; stroke-width: 2px; opacity: 1;"/></g><g class="points"/><g class="text"/></g></g></g><g class="overplot"/><path class="xlines-above crisp" d="M0,0" style="fill: none;"/><path class="ylines-above crisp" d="M0,0" style="fill: none;"/><g class="overlines-above"/><g class="xaxislayer-above"><g class="xtick"><text text-anchor="middle" x="0" y="433" transform="translate(80,0)" style="font-family: 'Open Sans', verdana, arial, sans-serif; font-size: 12px; fill: rgb(42, 63, 95); fill-opacity: 1; white-space: pre;">2010</text></g><g class="xtick"><text text-anchor="middle" x="0" y="433" transform="translate(183.63,0)" style="font-family: 'Open Sans', verdana, arial, sans-serif; font-size: 12px; fill: rgb(42, 63, 95); fill-opacity: 1; white-space: pre;">2012</text></g><g class="xtick"><text text-anchor="middle" x="0" y="433" transform="translate(287.4,0)" style="font-family: 'Open Sans', verdana, arial, sans-serif; font-size: 12px; fill: rgb(42, 63, 95); fill-opacity: 1; white-space: pre;">2014</text></g><g class="xtick"><text text-anchor="middle" x="0" y="433" transform="translate(391.03,0)" style="font-family: 'Open Sans', verdana, arial, sans-serif; font-size: 12px; fill: rgb(42, 63, 95); fill-opacity: 1; white-space: pre;">2016</text></g><g class="xtick"><text text-anchor="middle" x="0" y="433" transform="translate(494.79,0)" style="font-family: 'Open Sans', verdana, arial, sans-serif; font-size: 12px; fill: rgb(42, 63, 95); fill-opacity: 1; white-space: pre;">2018</text></g><g class="xtick"><text text-anchor="middle" x="0" y="433" transform="translate(598.42,0)" style="font-family: 'Open Sans', verdana, arial, sans-serif; font-size: 12px; fill: rgb(42, 63, 95); fill-opacity: 1; white-space: pre;">2020</text></g></g><g class="yaxislayer-above"><g class="ytick"><text text-anchor="end" x="79" y="4.199999999999999" transform="translate(0,415.83)" style="font-family: 'Open Sans', verdana, arial, sans-serif; font-size: 12px; fill: rgb(42, 63, 95); fill-opacity: 1; white-space: pre;">−0.8</text></g><g class="ytick"><text text-anchor="end" x="79" y="4.199999999999999" transform="translate(0,376.35)" style="font-family: 'Open Sans', verdana, arial, sans-serif; font-size: 12px; fill: rgb(42, 63, 95); fill-opacity: 1; white-space: pre;">−0.7</text></g><g class="ytick"><text text-anchor="end" x="79" y="4.199999999999999" transform="translate(0,336.87)" style="font-family: 'Open Sans', verdana, arial, sans-serif; font-size: 12px; fill: rgb(42, 63, 95); fill-opacity: 1; white-space: pre;">−0.6</text></g><g class="ytick"><text text-anchor="end" x="79" y="4.199999999999999" transform="translate(0,297.39)" style="font-family: 'Open Sans', verdana, arial, sans-serif; font-size: 12px; fill: rgb(42, 63, 95); fill-opacity: 1; white-space: pre;">−0.5</text></g><g class="ytick"><text text-anchor="end" x="79" y="4.199999999999999" transform="translate(0,257.90999999999997)" style="font-family: 'Open Sans', verdana, arial, sans-serif; font-size: 12px; fill: rgb(42, 63, 95); fill-opacity: 1; white-space: pre;">−0.4</text></g><g class="ytick"><text text-anchor="end" x="79" y="4.199999999999999" transform="translate(0,218.44)" style="font-family: 'Open Sans', verdana, arial, sans-serif; font-size: 12px; fill: rgb(42, 63, 95); fill-opacity: 1; white-space: pre;">−0.3</text></g><g class="ytick"><text text-anchor="end" x="79" y="4.199999999999999" transform="translate(0,178.95999999999998)" style="font-family: 'Open Sans', verdana, arial, sans-serif; font-size: 12px; fill: rgb(42, 63, 95); fill-opacity: 1; white-space: pre;">−0.2</text></g><g class="ytick"><text text-anchor="end" x="79" y="4.199999999999999" transform="translate(0,139.48)" style="font-family: 'Open Sans', verdana, arial, sans-serif; font-size: 12px; fill: rgb(42, 63, 95); fill-opacity: 1; white-space: pre;">−0.1</text></g><g class="ytick"><text text-anchor="end" x="79" y="4.199999999999999" transform="translate(0,100)" style="font-family: 'Open Sans', verdana, arial, sans-serif; font-size: 12px; fill: rgb(42, 63, 95); fill-opacity: 1; white-space: pre;">0</text></g></g><g class="overaxes-above"/></g></g><g class="polarlayer"/><g class="ternarylayer"/><g class="geolayer"/><g class="funnelarealayer"/><g class="pielayer"/><g class="treemaplayer"/><g class="sunburstlayer"/><g class="glimages"/><defs id="topdefs-88a3e8"><g class="clips"/></defs><g class="layer-above"><g class="imagelayer"/><g class="shapelayer"/></g><g class="infolayer"><g class="g-gtitle"/><g class="g-xtitle"/><g class="g-ytitle"><text class="ytitle" transform="rotate(-90,24.746875000000003,260)" x="24.746875000000003" y="260" text-anchor="middle" style="font-family: 'Open Sans', verdana, arial, sans-serif; font-size: 14px; fill: rgb(42, 63, 95); opacity: 1; font-weight: normal; white-space: pre;">Sentiment Index</text></g></g></svg>