<svg class="main-svg" xmlns="http://www.w3.org/2000/svg" xmlns:xlink="http://www.w3.org/1999/xlink" width="700" height="500" viewBox="0 0 700 500"><rect x="0" y="0" width="700" height="500" style="fill: rgb(0, 0, 0); fill-opacity: 0;"/><defs id="defs-fa24b6"><g class="clips"><clipPath id="clipfa24b6xyplot" class="plotclip"><rect width="499" height="320"/></clipPath><clipPath class="axesclip" id="clipfa24b6x"><rect x="80" y="0" width="499" height="500"/></clipPath><clipPath class="axesclip" id="clipfa24b6y"><rect x="0" y="100" width="700" height="320"/></clipPath><clipPath class="axesclip" id="clipfa24b6xy"><rect x="80" y="100" width="499" height="320"/></clipPath></g><g class="gradients"/></defs><g class="bglayer"><rect class="bg" x="80" y="100" width="499" height="320" style="fill: rgb(0, 0, 0); fill-opacity: 0; stroke-width: 0;"/></g><g class="layer-below"><g class="imagelayer"/><g class="shapelayer"/></g><g class="cartesianlayer"><g class="subplot xy"><g class="layer-subplot"><g class="shapelayer"/><g class="imagelayer"/></g><g class="gridlayer"><g class="x"><path class="xgrid crisp" transform="translate(185.67000000000002,0)" d="M0,100v320" style="stroke: rgb(255, 255, 255); stroke-opacity: 1; stroke-width: 1px;"/><path class="xgrid crisp" transform="translate(300.8,0)" d="M0,100v320" style="stroke: rgb(255, 255, 255); stroke-opacity: 1; stroke-width: 1px;"/><path class="xgrid crisp" transform="translate(415.93,0)" d="M0,100v320" style="stroke: rgb(255, 255, 255); stroke-opacity: 1; stroke-width: 1px;"/><path class="xgrid crisp" transform="translate(531.06,0)" d="M0,100v320" style="stroke: rgb(255, 255, 255); stroke-opacity: 1; stroke-width: 1px;"/></g><g class="y"><path class="ygrid crisp" transform="translate(0,377.9)" d="M80,0h499" style="stroke: rgb(255, 255, 255); stroke-opacity: 1; stroke-width: 1px;"/><path class="ygrid crisp" transform="translate(0,284.28)" d="M80,0h499" style="stroke: rgb(255, 255, 255); stroke-opacity: 1; stroke-width: 1px;"/><path class="ygrid crisp" transform="translate(0,237.47)" d="M80,0h499" style="stroke: rgb(255, 255, 255); stroke-opacity: 1; stroke-width: 1px;"/><path class="ygrid crisp" transform="translate(0,190.65)" d="M80,0h499" style="stroke: rgb(255, 255, 255); stroke-opacity: 1; stroke-width: 1px;"/><path class="ygrid crisp" transform="translate(0,143.84)" d="M80,0h499" style="stroke: rgb(255, 255, 255); stroke-opacity: 1; stroke-width: 1px;"/></g></g><g class="zerolinelayer"><path class="yzl zl crisp" transform="translate(0,331.09000000000003)" d="M80,0h499" style="stroke: rgb(255, 255, 255); stroke-opacity: 1; stroke-width: 2px;"/></g><path class="xlines-below"/><path class="ylines-below"/><g class="overlines-below"/><g class="xaxislayer-below"/><g class="yaxislayer-below"/><g class="overaxes-below"/><g class="plot" transform="translate(80, 100)" clip-path="url('#clipfa24b6xyplot')"><g class="scatterlayer mlayer"><g class="trace scatter trace2cc486" style="stroke-miterlimit: 2;"><g class="fills"><g><path class="js-fill" d="M0,152.79L9.15,151.68L18.93,154.46L28.39,138.67L38.17,138.67L47.63,164.68L57.41,175.36L67.19,132.17L76.65,142.39L86.43,188.09L95.89,191.8L105.67,160.22L115.45,149.08L134.05,164.68L143.52,242.7L153.3,295.64L162.76,276.6L172.54,286.82L182.31,304L191.78,281.15L201.56,275.58L211.02,286.72L220.8,294.15L230.57,255.14L239.41,239.36L249.18,210.93L258.65,148.52L268.43,95.58L277.89,115.55L287.67,110.9L297.44,90.24L306.91,90.79L316.69,47.14L326.15,59.4L335.93,39.89L345.7,60.2L354.54,69.27L364.31,67.04L373.78,80.69L383.55,118.9L393.02,132.84L402.8,130.64L412.57,131.8L422.04,138.49L431.81,126.41L441.28,77L451.06,94.65L460.83,115.31L469.98,124.26L479.76,164.31L489.22,164.51L499,185.94L489.22,145.26L479.76,153.72L469.98,189.54L460.83,122.67L451.06,94.81L441.28,86.08L431.81,67.96L422.04,45.32L412.57,59.65L402.8,71.11L393.02,112.91L383.55,126.59L373.78,118.78L364.31,117.99L354.54,71.55L345.7,114.74L335.93,152.63L326.15,192.97L316.69,235.69L306.91,250.18L297.44,251.77L287.67,282.43L277.89,262.92L268.43,263.48L258.65,286.88L249.18,280.2L239.41,275.68L230.57,251.44L220.8,207.97L211.02,146.28L201.56,129.56L191.78,130.99L182.31,111.35L172.54,87.2L162.76,60.27L153.3,39.81L134.05,16L124.28,24.76L115.45,48L105.67,79.77L95.89,147.57L86.43,155L76.65,140.19L67.19,136.25L57.41,158.54L47.63,186.27L38.17,193.36L28.39,222.46L18.93,262.86L9.15,274.96L0,252.67Z" style="fill: rgb(255, 60, 46); fill-opacity: 0.05; stroke-width: 0;"/></g></g><g class="errorbars"/><g class="lines"><path class="js-line" d="M0,252.67L9.15,274.96L18.93,262.86L28.39,222.46L38.17,193.36L47.63,186.27L57.41,158.54L67.19,136.25L76.65,140.19L86.43,155L95.89,147.57L105.67,79.77L115.45,48L124.28,24.76L134.05,16L153.3,39.81L162.76,60.27L172.54,87.2L182.31,111.35L191.78,130.99L201.56,129.56L211.02,146.28L220.8,207.97L230.57,251.44L239.41,275.68L249.18,280.2L258.65,286.88L268.43,263.48L277.89,262.92L287.67,282.43L297.44,251.77L306.91,250.18L316.69,235.69L326.15,192.97L335.93,152.63L345.7,114.74L354.54,71.55L364.31,117.99L373.78,118.78L383.55,126.59L393.02,112.91L402.8,71.11L412.57,59.65L422.04,45.32L431.81,67.96L441.28,86.08L451.06,94.81L460.83,122.67L469.98,189.54L479.76,153.72L489.22,145.26L499,185.94" style="vector-effect: non-scaling-stroke; fill: none; stroke: rgb(175, 79, 80); stroke-opacity: 1; stroke-width: 2px; opacity: 1;"/></g><g class="points"/><g class="text"/></g><g class="trace scatter trace639a23" style="stroke-miterlimit: 2;"><g class="fills"/><g class="errorbars"/><g class="lines"><path class="js-line" d="M0,152.79L9.15,151.68L18.93,154.46L28.39,138.67L38.17,138.67L47.63,164.68L57.41,175.36L67.19,132.17L76.65,142.39L86.43,188.09L95.89,191.8L105.67,160.22L115.45,149.08L134.05,164.68L143.52,242.7L153.3,295.64L162.76,276.6L172.54,286.82L182.31,304L191.78,281.15L201.56,275.58L211.02,286.72L220.8,294.15L230.57,255.14L239.41,239.36L249.18,210.93L258.65,148.52L268.43,95.58L277.89,115.55L287.67,110.9L297.44,90.24L306.91,90.79L316.69,47.14L326.15,59.4L335.93,39.89L345.7,60.2L354.54,69.27L364.31,67.04L373.78,80.69L383.55,118.9L393.02,132.84L402.8,130.64L412.57,131.8L422.04,138.49L431.81,126.41L441.28,77L451.06,94.65L460.83,115.31L469.98,124.26L479.76,164.31L489.22,164.51" style="vector-effect: non-scaling-stroke; fill: none; stroke: rgb(225, 155, 126); stroke-opacity: 1; stroke-width: 2px; opacity: 1;"/></g><g class="points"/><g class="text"/></g></g></g><g class="overplot"/><path class="xlines-above crisp" d="M0,0" style="fill: none;"/><path class="ylines-above crisp" d="M0,0" style="fill: none;"/><g class="overlines-above"/><g class="xaxislayer-above"><g class="xtick"><text text-anchor="middle" x="0" y="433" transform="translate(185.67000000000002,0)" style="font-family: 'Open Sans', verdana, arial, sans-serif; font-size: 12px; fill: rgb(42, 63, 95); fill-opacity: 1; white-space: pre;">2017</text></g><g class="xtick"><text text-anchor="middle" x="0" y="433" transform="translate(300.8,0)" style="font-family: 'Open Sans', verdana, arial, sans-serif; font-size: 12px; fill: rgb(42, 63, 95); fill-opacity: 1; white-space: pre;">2018</text></g><g class="xtick"><text text-anchor="middle" x="0" y="433" transform="translate(415.93,0)" style="font-family: 'Open Sans', verdana, arial, sans-serif; font-size: 12px; fill: rgb(42, 63, 95); fill-opacity: 1; white-space: pre;">2019</text></g><g class="xtick"><text text-anchor="middle" x="0" y="433" transform="translate(531.06,0)" style="font-family: 'Open Sans', verdana, arial, sans-serif; font-size: 12px; fill: rgb(42, 63, 95); fill-opacity: 1; white-space: pre;">2020</text></g></g><g class="yaxislayer-above"><g class="ytick"><text text-anchor="end" x="79" y="4.199999999999999" transform="translate(0,377.9)" style="font-family: 'Open Sans', verdana, arial, sans-serif; font-size: 12px; fill: rgb(42, 63, 95); fill-opacity: 1; white-space: pre;">−0.1</text></g><g class="ytick"><text text-anchor="end" x="79" y="4.199999999999999" transform="translate(0,331.09000000000003)" style="font-family: 'Open Sans', verdana, arial, sans-serif; font-size: 12px; fill: rgb(42, 63, 95); fill-opacity: 1; white-space: pre;">0</text></g><g class="ytick"><text text-anchor="end" x="79" y="4.199999999999999" transform="translate(0,284.28)" style="font-family: 'Open Sans', verdana, arial, sans-serif; font-size: 12px; fill: rgb(42, 63, 95); fill-opacity: 1; white-space: pre;">0.1</text></g><g class="ytick"><text text-anchor="end" x="79" y="4.199999999999999" transform="translate(0,237.47)" style="font-family: 'Open Sans', verdana, arial, sans-serif; font-size: 12px; fill: rgb(42, 63, 95); fill-opacity: 1; white-space: pre;">0.2</text></g><g class="ytick"><text text-anchor="end" x="79" y="4.199999999999999" transform="translate(0,190.65)" style="font-family: 'Open Sans', verdana, arial, sans-serif; font-size: 12px; fill: rgb(42, 63, 95); fill-opacity: 1; white-space: pre;">0.3</text></g><g class="ytick"><text text-anchor="end" x="79" y="4.199999999999999" transform="translate(0,143.84)" style="font-family: 'Open Sans', verdana, arial, sans-serif; font-size: 12px; fill: rgb(42, 63, 95); fill-opacity: 1; white-space: pre;">0.4</text></g></g><g class="overaxes-above"/></g></g><g class="polarlayer"/><g class="ternarylayer"/><g class="geolayer"/><g class="funnelarealayer"/><g class="pielayer"/><g class="treemaplayer"/><g class="sunburstlayer"/><g class="glimages"/><defs id="topdefs-fa24b6"><g class="clips"/><clipPath id="legendfa24b6"><rect width="99" height="48" x="0" y="0"/></clipPath></defs><g class="layer-above"><g class="imagelayer"/><g class="shapelayer"/></g><g class="infolayer"><g class="legend" pointer-events="all" transform="translate(588.98, 100)"><rect class="bg" shape-rendering="crispEdges" width="99" height="48" x="0" y="0" style="stroke: rgb(68, 68, 68); stroke-opacity: 1; fill: rgb(0, 0, 0); fill-opacity: 0; stroke-width: 0px;"/><g class="scrollbox" transform="translate(0, 0)" clip-path="url('#legendfa24b6')"><g class="groups"><g class="traces" transform="translate(0, 14.5)" style="opacity: 1;"><text class="legendtext user-select-none" text-anchor="start" x="40" y="4.680000000000001" style="font-family: 'Open Sans', verdana, arial, sans-serif; font-size: 12px; fill: rgb(42, 63, 95); fill-opacity: 1; white-space: pre;">Barrick</text><g class="layers"><g class="legendfill"><path class="js-fill" d="M5,-2h30v6h-30z" style="stroke-width: 0; fill: rgb(255, 60, 46); fill-opacity: 0.05;"/></g><g class="legendlines"><path class="js-line" d="M5,-2h30" style="fill: none; stroke: rgb(225, 155, 126); stroke-opacity: 1; stroke-width: 2px;"/></g><g class="legendsymbols"><g class="legendpoints"/></g></g><rect class="legendtoggle" pointer-events="all" x="0" y="-9.5" width="93.46875" height="19" style="cursor: pointer; fill: rgb(0, 0, 0); fill-opacity: 0;"/></g><g class="traces" transform="translate(0, 33.5)" style="opacity: 1;"><text class="legendtext user-select-none" text-anchor="start" x="40" y="4.680000000000001" style="font-family: 'Open Sans', verdana, arial, sans-serif; font-size: 12px; fill: rgb(42, 63, 95); fill-opacity: 1; white-space: pre;">Rio Tinto</text><g class="layers"><g class="legendfill"/><g class="legendlines"><path class="js-line" d="M5,0h30" style="fill: none; stroke: rgb(175, 79, 80); stroke-opacity: 1; stroke-width: 2px;"/></g><g class="legendsymbols"><g class="legendpoints"/></g></g><rect class="legendtoggle" pointer-events="all" x="0" y="-9.5" width="93.46875" height="19" style="cursor: pointer; fill: rgb(0, 0, 0); fill-opacity: 0;"/></g></g></g><rect class="scrollbar" rx="20" ry="3" width="0" height="0" x="0" y="0" style="fill: rgb(128, 139, 164); fill-opacity: 1;"/></g><g class="g-gtitle"/><g class="g-xtitle"/><g class="g-ytitle"><text class="ytitle" transform="rotate(-90,24.746875000000003,260)" x="24.746875000000003" y="260" text-anchor="middle" style="font-family: 'Open Sans', verdana, arial, sans-serif; font-size: 14px; fill: rgb(42, 63, 95); opacity: 1; font-weight: normal; white-space: pre;">Sentiment Index</text></g></g></svg>