<svg class="main-svg" xmlns="http://www.w3.org/2000/svg" xmlns:xlink="http://www.w3.org/1999/xlink" width="700" height="500" viewBox="0 0 700 500"><rect x="0" y="0" width="700" height="500" style="fill: rgb(0, 0, 0); fill-opacity: 0;"/><defs id="defs-ed73d7"><g class="clips"><clipPath id="cliped73d7xyplot" class="plotclip"><rect width="517" height="320"/></clipPath><clipPath class="axesclip" id="cliped73d7x"><rect x="80" y="0" width="517" height="500"/></clipPath><clipPath class="axesclip" id="cliped73d7y"><rect x="0" y="100" width="700" height="320"/></clipPath><clipPath class="axesclip" id="cliped73d7xy"><rect x="80" y="100" width="517" height="320"/></clipPath></g><g class="gradients"/></defs><g class="bglayer"><rect class="bg" x="80" y="100" width="517" height="320" style="fill: rgb(0, 0, 0); fill-opacity: 0; stroke-width: 0;"/></g><g class="layer-below"><g class="imagelayer"/><g class="shapelayer"/></g><g class="cartesianlayer"><g class="subplot xy"><g class="layer-subplot"><g class="shapelayer"/><g class="imagelayer"/></g><g class="gridlayer"><g class="x"><path class="xgrid crisp" transform="translate(179.20999999999998,0)" d="M0,100v320" style="stroke: rgb(255, 255, 255); stroke-opacity: 1; stroke-width: 1px;"/><path class="xgrid crisp" transform="translate(278.56,0)" d="M0,100v320" style="stroke: rgb(255, 255, 255); stroke-opacity: 1; stroke-width: 1px;"/><path class="xgrid crisp" transform="translate(377.78,0)" d="M0,100v320" style="stroke: rgb(255, 255, 255); stroke-opacity: 1; stroke-width: 1px;"/><path class="xgrid crisp" transform="translate(477.13,0)" d="M0,100v320" style="stroke: rgb(255, 255, 255); stroke-opacity: 1; stroke-width: 1px;"/><path class="xgrid crisp" transform="translate(576.3399999999999,0)" d="M0,100v320" style="stroke: rgb(255, 255, 255); stroke-opacity: 1; stroke-width: 1px;"/></g><g class="y"><path class="ygrid crisp" transform="translate(0,416.26)" d="M80,0h517" style="stroke: rgb(255, 255, 255); stroke-opacity: 1; stroke-width: 1px;"/><path class="ygrid crisp" transform="translate(0,356.43)" d="M80,0h517" style="stroke: rgb(255, 255, 255); stroke-opacity: 1; stroke-width: 1px;"/><path class="ygrid crisp" transform="translate(0,236.76)" d="M80,0h517" style="stroke: rgb(255, 255, 255); stroke-opacity: 1; stroke-width: 1px;"/><path class="ygrid crisp" transform="translate(0,176.93)" d="M80,0h517" style="stroke: rgb(255, 255, 255); stroke-opacity: 1; stroke-width: 1px;"/><path class="ygrid crisp" transform="translate(0,117.09)" d="M80,0h517" style="stroke: rgb(255, 255, 255); stroke-opacity: 1; stroke-width: 1px;"/></g></g><g class="zerolinelayer"><path class="yzl zl crisp" transform="translate(0,296.59000000000003)" d="M80,0h517" style="stroke: rgb(255, 255, 255); stroke-opacity: 1; stroke-width: 2px;"/></g><path class="xlines-below"/><path class="ylines-below"/><g class="overlines-below"/><g class="xaxislayer-below"/><g class="yaxislayer-below"/><g class="overaxes-below"/><g class="plot" transform="translate(80, 100)" clip-path="url('#cliped73d7xyplot')"><g class="scatterlayer mlayer"><g class="trace scatter trace858024" style="stroke-miterlimit: 2;"><g class="fills"><g><path class="js-fill" d="M45.39,147.64L49.61,169.14L53.82,173.05L57.63,188.68L61.84,202.36L65.92,214.09L70.13,210.18L74.21,212.14L78.42,216.05L82.63,216.05L86.71,221.91L90.92,237.55L95,243.41L99.21,237.55L103.43,239.5L107.37,241.45L111.58,235.59L115.66,223.86L119.87,231.68L123.95,239.5L128.16,243.41L132.38,241.45L136.45,241.45L140.67,243.41L144.74,249.27L153.17,270.77L156.98,262.95L161.19,262.95L165.27,272.73L169.48,276.64L173.56,276.64L177.77,280.55L181.98,282.5L186.06,288.36L190.27,286.41L194.35,288.36L198.56,292.27L202.78,292.27L206.58,302.05L210.8,296.18L214.87,304L219.09,296.18L223.16,296.18L227.38,290.32L231.59,282.5L235.67,274.68L239.88,270.77L248.17,255.14L252.38,255.14L260.4,268.82L264.48,257.09L268.69,262.95L272.77,259.05L276.98,261L281.2,270.77L285.27,255.14L289.49,249.27L293.56,255.14L297.78,259.05L301.99,259.05L305.93,253.18L310.15,243.41L314.22,227.77L318.44,212.14L322.51,208.23L326.73,198.46L330.94,180.86L335.02,192.59L339.23,178.91L347.52,171.09L351.73,153.5L355.54,143.73L359.75,147.64L363.83,155.46L368.04,141.77L372.12,137.86L376.33,126.14L380.55,128.09L384.62,87.05L388.84,83.14L392.91,75.32L397.13,53.82L401.34,75.32L405.15,67.5L409.36,61.64L413.44,59.68L417.65,75.32L421.73,67.5L425.94,83.14L430.15,79.23L434.23,106.59L438.44,124.18L442.52,137.86L446.73,155.46L450.95,155.46L454.75,167.18L458.97,173.05L463.04,184.77L467.26,186.73L471.33,190.64L475.55,178.91L479.76,180.86L483.84,188.68L488.05,188.68L492.13,190.64L500.55,163.27L504.5,165.23L512.79,90.96L517,108.55L512.79,16L508.71,24.88L504.5,66.32L500.55,75.2L496.34,82.6L492.13,95.92L488.05,106.28L483.84,119.6L479.76,147.72L475.55,190.64L471.33,215.8L467.26,240.96L463.04,232.08L458.97,242.44L454.75,236.52L450.95,233.56L446.73,248.36L442.52,255.76L438.44,240.96L434.23,218.76L430.15,226.16L425.94,226.16L421.73,220.24L417.65,230.6L413.44,254.28L409.36,264.64L401.34,280.92L397.13,266.12L392.91,264.64L388.84,276.48L384.62,298.68L380.55,295.72L376.33,282.4L372.12,295.72L368.04,277.96L363.83,263.16L355.54,246.88L351.73,249.84L347.52,251.32L343.31,243.92L335.02,232.08L330.94,224.68L326.73,238L322.51,230.6L318.44,238L314.22,236.52L305.93,218.76L301.99,202.48L297.78,198.04L293.56,196.56L289.49,183.24L285.27,177.32L281.2,178.8L276.98,150.68L272.77,144.76L268.69,140.32L264.48,137.36L260.4,134.4L256.19,140.32L252.38,149.2L248.17,166.96L243.96,178.8L239.88,183.24L235.67,189.16L231.59,178.8L227.38,202.48L223.16,220.24L219.09,220.24L210.8,254.28L206.58,255.76L202.78,264.64L198.56,252.8L194.35,248.36L190.27,249.84L186.06,261.68L181.98,258.72L177.77,252.8L173.56,239.48L169.48,251.32L165.27,249.84L161.19,238L156.98,239.48L153.17,235.04L148.96,232.08L144.74,218.76L140.67,211.36L136.45,205.44L132.38,209.88L128.16,203.96L123.95,201L119.87,189.16L115.66,181.76L111.58,184.72L107.37,169.92L103.43,162.52L99.21,152.16L95,147.72L90.92,146.24L86.71,156.6L82.63,161.04L78.42,172.88L74.21,171.4L70.13,162.52L65.92,166.96L61.84,172.88L57.63,175.84L53.82,164L49.61,166.96L45.39,178.8Z" style="fill: rgb(69, 94, 255); fill-opacity: 0.05; stroke-width: 0;"/></g></g><g class="errorbars"/><g class="lines"><path class="js-line" d="M45.39,178.8L49.61,166.96L53.82,164L57.63,175.84L61.84,172.88L65.92,166.96L70.13,162.52L74.21,171.4L78.42,172.88L82.63,161.04L86.71,156.6L90.92,146.24L95,147.72L99.21,152.16L103.43,162.52L107.37,169.92L111.58,184.72L115.66,181.76L119.87,189.16L123.95,201L128.16,203.96L132.38,209.88L136.45,205.44L140.67,211.36L144.74,218.76L148.96,232.08L153.17,235.04L156.98,239.48L161.19,238L165.27,249.84L169.48,251.32L173.56,239.48L177.77,252.8L181.98,258.72L186.06,261.68L190.27,249.84L194.35,248.36L198.56,252.8L202.78,264.64L206.58,255.76L210.8,254.28L219.09,220.24L223.16,220.24L227.38,202.48L231.59,178.8L235.67,189.16L239.88,183.24L243.96,178.8L248.17,166.96L252.38,149.2L256.19,140.32L260.4,134.4L264.48,137.36L268.69,140.32L272.77,144.76L276.98,150.68L281.2,178.8L285.27,177.32L289.49,183.24L293.56,196.56L297.78,198.04L301.99,202.48L305.93,218.76L314.22,236.52L318.44,238L322.51,230.6L326.73,238L330.94,224.68L335.02,232.08L343.31,243.92L347.52,251.32L351.73,249.84L355.54,246.88L363.83,263.16L368.04,277.96L372.12,295.72L376.33,282.4L380.55,295.72L384.62,298.68L388.84,276.48L392.91,264.64L397.13,266.12L401.34,280.92L409.36,264.64L413.44,254.28L417.65,230.6L421.73,220.24L425.94,226.16L430.15,226.16L434.23,218.76L438.44,240.96L442.52,255.76L446.73,248.36L450.95,233.56L454.75,236.52L458.97,242.44L463.04,232.08L467.26,240.96L471.33,215.8L475.55,190.64L479.76,147.72L483.84,119.6L488.05,106.28L492.13,95.92L496.34,82.6L500.55,75.2L504.5,66.32L508.71,24.88L512.79,16" style="vector-effect: non-scaling-stroke; fill: none; stroke: rgb(23, 162, 184); stroke-opacity: 1; stroke-width: 2px; opacity: 1;"/></g><g class="points"/><g class="text"/></g><g class="trace scatter tracecb1ead" style="stroke-miterlimit: 2;"><g class="fills"/><g class="errorbars"/><g class="lines"><path class="js-line" d="M45.39,147.64L49.61,169.14L53.82,173.05L57.63,188.68L61.84,202.36L65.92,214.09L70.13,210.18L74.21,212.14L78.42,216.05L82.63,216.05L86.71,221.91L90.92,237.55L95,243.41L99.21,237.55L103.43,239.5L107.37,241.45L111.58,235.59L115.66,223.86L119.87,231.68L123.95,239.5L128.16,243.41L132.38,241.45L136.45,241.45L140.67,243.41L144.74,249.27L153.17,270.77L156.98,262.95L161.19,262.95L165.27,272.73L169.48,276.64L173.56,276.64L177.77,280.55L181.98,282.5L186.06,288.36L190.27,286.41L194.35,288.36L198.56,292.27L202.78,292.27L206.58,302.05L210.8,296.18L214.87,304L219.09,296.18L223.16,296.18L227.38,290.32L231.59,282.5L235.67,274.68L239.88,270.77L248.17,255.14L252.38,255.14L260.4,268.82L264.48,257.09L268.69,262.95L272.77,259.05L276.98,261L281.2,270.77L285.27,255.14L289.49,249.27L293.56,255.14L297.78,259.05L301.99,259.05L305.93,253.18L310.15,243.41L314.22,227.77L318.44,212.14L322.51,208.23L326.73,198.46L330.94,180.86L335.02,192.59L339.23,178.91L347.52,171.09L351.73,153.5L355.54,143.73L359.75,147.64L363.83,155.46L368.04,141.77L372.12,137.86L376.33,126.14L380.55,128.09L384.62,87.05L388.84,83.14L392.91,75.32L397.13,53.82L401.34,75.32L405.15,67.5L409.36,61.64L413.44,59.68L417.65,75.32L421.73,67.5L425.94,83.14L430.15,79.23L434.23,106.59L438.44,124.18L442.52,137.86L446.73,155.46L450.95,155.46L454.75,167.18L458.97,173.05L463.04,184.77L467.26,186.73L471.33,190.64L475.55,178.91L479.76,180.86L483.84,188.68L488.05,188.68L492.13,190.64L500.55,163.27L504.5,165.23L512.79,90.96L517,108.55" style="vector-effect: non-scaling-stroke; fill: none; stroke: rgb(52, 58, 64); stroke-opacity: 1; stroke-width: 2px; opacity: 1;"/></g><g class="points"/><g class="text"/></g></g></g><g class="overplot"/><path class="xlines-above crisp" d="M0,0" style="fill: none;"/><path class="ylines-above crisp" d="M0,0" style="fill: none;"/><g class="overlines-above"/><g class="xaxislayer-above"><g class="xtick"><text text-anchor="middle" x="0" y="433" transform="translate(80,0)" style="font-family: 'Open Sans', verdana, arial, sans-serif; font-size: 12px; fill: rgb(42, 63, 95); fill-opacity: 1; white-space: pre;">2010</text></g><g class="xtick"><text text-anchor="middle" x="0" y="433" transform="translate(179.20999999999998,0)" style="font-family: 'Open Sans', verdana, arial, sans-serif; font-size: 12px; fill: rgb(42, 63, 95); fill-opacity: 1; white-space: pre;">2012</text></g><g class="xtick"><text text-anchor="middle" x="0" y="433" transform="translate(278.56,0)" style="font-family: 'Open Sans', verdana, arial, sans-serif; font-size: 12px; fill: rgb(42, 63, 95); fill-opacity: 1; white-space: pre;">2014</text></g><g class="xtick"><text text-anchor="middle" x="0" y="433" transform="translate(377.78,0)" style="font-family: 'Open Sans', verdana, arial, sans-serif; font-size: 12px; fill: rgb(42, 63, 95); fill-opacity: 1; white-space: pre;">2016</text></g><g class="xtick"><text text-anchor="middle" x="0" y="433" transform="translate(477.13,0)" style="font-family: 'Open Sans', verdana, arial, sans-serif; font-size: 12px; fill: rgb(42, 63, 95); fill-opacity: 1; white-space: pre;">2018</text></g><g class="xtick"><text text-anchor="middle" x="0" y="433" transform="translate(576.3399999999999,0)" style="font-family: 'Open Sans', verdana, arial, sans-serif; font-size: 12px; fill: rgb(42, 63, 95); fill-opacity: 1; white-space: pre;">2020</text></g></g><g class="yaxislayer-above"><g class="ytick"><text text-anchor="end" x="79" y="4.199999999999999" transform="translate(0,416.26)" style="font-family: 'Open Sans', verdana, arial, sans-serif; font-size: 12px; fill: rgb(42, 63, 95); fill-opacity: 1; white-space: pre;">−1</text></g><g class="ytick"><text text-anchor="end" x="79" y="4.199999999999999" transform="translate(0,356.43)" style="font-family: 'Open Sans', verdana, arial, sans-serif; font-size: 12px; fill: rgb(42, 63, 95); fill-opacity: 1; white-space: pre;">−0.5</text></g><g class="ytick"><text text-anchor="end" x="79" y="4.199999999999999" transform="translate(0,296.59000000000003)" style="font-family: 'Open Sans', verdana, arial, sans-serif; font-size: 12px; fill: rgb(42, 63, 95); fill-opacity: 1; white-space: pre;">0</text></g><g class="ytick"><text text-anchor="end" x="79" y="4.199999999999999" transform="translate(0,236.76)" style="font-family: 'Open Sans', verdana, arial, sans-serif; font-size: 12px; fill: rgb(42, 63, 95); fill-opacity: 1; white-space: pre;">0.5</text></g><g class="ytick"><text text-anchor="end" x="79" y="4.199999999999999" transform="translate(0,176.93)" style="font-family: 'Open Sans', verdana, arial, sans-serif; font-size: 12px; fill: rgb(42, 63, 95); fill-opacity: 1; white-space: pre;">1</text></g><g class="ytick"><text text-anchor="end" x="79" y="4.199999999999999" transform="translate(0,117.09)" style="font-family: 'Open Sans', verdana, arial, sans-serif; font-size: 12px; fill: rgb(42, 63, 95); fill-opacity: 1; white-space: pre;">1.5</text></g></g><g class="overaxes-above"/></g></g><g class="polarlayer"/><g class="ternarylayer"/><g class="geolayer"/><g class="funnelarealayer"/><g class="pielayer"/><g class="treemaplayer"/><g class="sunburstlayer"/><g class="glimages"/><defs id="topdefs-ed73d7"><g class="clips"/><clipPath id="legended73d7"><rect width="81" height="48" x="0" y="0"/></clipPath></defs><g class="layer-above"><g class="imagelayer"/><g class="shapelayer"/></g><g class="infolayer"><g class="legend" pointer-events="all" transform="translate(607.34, 100)"><rect class="bg" shape-rendering="crispEdges" width="81" height="48" x="0" y="0" style="stroke: rgb(68, 68, 68); stroke-opacity: 1; fill: rgb(0, 0, 0); fill-opacity: 0; stroke-width: 0px;"/><g class="scrollbox" transform="translate(0, 0)" clip-path="url('#legended73d7')"><g class="groups"><g class="traces" transform="translate(0, 14.5)" style="opacity: 1;"><text class="legendtext user-select-none" text-anchor="start" x="40" y="4.680000000000001" style="font-family: 'Open Sans', verdana, arial, sans-serif; font-size: 12px; fill: rgb(42, 63, 95); fill-opacity: 1; white-space: pre;">Zinc</text><g class="layers"><g class="legendfill"><path class="js-fill" d="M5,-2h30v6h-30z" style="stroke-width: 0; fill: rgb(69, 94, 255); fill-opacity: 0.05;"/></g><g class="legendlines"><path class="js-line" d="M5,-2h30" style="fill: none; stroke: rgb(52, 58, 64); stroke-opacity: 1; stroke-width: 2px;"/></g><g class="legendsymbols"><g class="legendpoints"/></g></g><rect class="legendtoggle" pointer-events="all" x="0" y="-9.5" width="75.9375" height="19" style="cursor: pointer; fill: rgb(0, 0, 0); fill-opacity: 0;"/></g><g class="traces" transform="translate(0, 33.5)" style="opacity: 1;"><text class="legendtext user-select-none" text-anchor="start" x="40" y="4.680000000000001" style="font-family: 'Open Sans', verdana, arial, sans-serif; font-size: 12px; fill: rgb(42, 63, 95); fill-opacity: 1; white-space: pre;">Nickel</text><g class="layers"><g class="legendfill"/><g class="legendlines"><path class="js-line" d="M5,0h30" style="fill: none; stroke: rgb(23, 162, 184); stroke-opacity: 1; stroke-width: 2px;"/></g><g class="legendsymbols"><g class="legendpoints"/></g></g><rect class="legendtoggle" pointer-events="all" x="0" y="-9.5" width="75.9375" height="19" style="cursor: pointer; fill: rgb(0, 0, 0); fill-opacity: 0;"/></g></g></g><rect class="scrollbar" rx="20" ry="3" width="0" height="0" x="0" y="0" style="fill: rgb(128, 139, 164); fill-opacity: 1;"/></g><g class="g-gtitle"/><g class="g-xtitle"/><g class="g-ytitle"><text class="ytitle" transform="rotate(-90,24.746875000000003,260)" x="24.746875000000003" y="260" text-anchor="middle" style="font-family: 'Open Sans', verdana, arial, sans-serif; font-size: 14px; fill: rgb(42, 63, 95); opacity: 1; font-weight: normal; white-space: pre;">Impact Index</text></g></g></svg>