<svg class="main-svg" xmlns="http://www.w3.org/2000/svg" xmlns:xlink="http://www.w3.org/1999/xlink" width="1000" height="600" viewBox="0 0 1000 600"><rect x="0" y="0" width="1000" height="600" style="fill: rgb(0, 0, 0); fill-opacity: 0;"/><defs id="defs-87a39b"><g class="clips"><clipPath id="clip87a39bxyplot" class="plotclip"><rect width="790" height="420"/></clipPath><clipPath class="axesclip" id="clip87a39bx"><rect x="80" y="0" width="790" height="600"/></clipPath><clipPath class="axesclip" id="clip87a39by"><rect x="0" y="100" width="1000" height="420"/></clipPath><clipPath class="axesclip" id="clip87a39bxy"><rect x="80" y="100" width="790" height="420"/></clipPath></g><g class="gradients"/></defs><g class="bglayer"><rect class="bg" x="80" y="100" width="790" height="420" style="fill: rgb(0, 0, 0); fill-opacity: 0; stroke-width: 0;"/></g><g class="layer-below"><g class="imagelayer"/><g class="shapelayer"/></g><g class="cartesianlayer"><g class="subplot xy"><g class="layer-subplot"><g class="shapelayer"/><g class="imagelayer"/></g><g class="gridlayer"><g class="x"><path class="xgrid crisp" transform="translate(216.26,0)" d="M0,100v420" style="stroke: rgb(250, 250, 250); stroke-opacity: 0.9; stroke-width: 1px;"/><path class="xgrid crisp" transform="translate(364.69,0)" d="M0,100v420" style="stroke: rgb(250, 250, 250); stroke-opacity: 0.9; stroke-width: 1px;"/><path class="xgrid crisp" transform="translate(512.72,0)" d="M0,100v420" style="stroke: rgb(250, 250, 250); stroke-opacity: 0.9; stroke-width: 1px;"/><path class="xgrid crisp" transform="translate(660.74,0)" d="M0,100v420" style="stroke: rgb(250, 250, 250); stroke-opacity: 0.9; stroke-width: 1px;"/><path class="xgrid crisp" transform="translate(808.76,0)" d="M0,100v420" style="stroke: rgb(250, 250, 250); stroke-opacity: 0.9; stroke-width: 1px;"/></g><g class="y"><path class="ygrid crisp" transform="translate(0,449.38)" d="M80,0h790" style="stroke: rgb(250, 250, 250); stroke-opacity: 0.9; stroke-width: 1px;"/><path class="ygrid crisp" transform="translate(0,374.67)" d="M80,0h790" style="stroke: rgb(250, 250, 250); stroke-opacity: 0.9; stroke-width: 1px;"/><path class="ygrid crisp" transform="translate(0,299.97)" d="M80,0h790" style="stroke: rgb(250, 250, 250); stroke-opacity: 0.9; stroke-width: 1px;"/><path class="ygrid crisp" transform="translate(0,225.26)" d="M80,0h790" style="stroke: rgb(250, 250, 250); stroke-opacity: 0.9; stroke-width: 1px;"/><path class="ygrid crisp" transform="translate(0,150.55)" d="M80,0h790" style="stroke: rgb(250, 250, 250); stroke-opacity: 0.9; stroke-width: 1px;"/></g></g><g class="zerolinelayer"/><path class="xlines-below"/><path class="ylines-below"/><g class="overlines-below"/><g class="xaxislayer-below"/><g class="yaxislayer-below"/><g class="overaxes-below"/><g class="plot" transform="translate(80, 100)" clip-path="url('#clip87a39bxyplot')"><g class="scatterlayer mlayer"><g class="trace scatter trace00b634" style="stroke-miterlimit: 2;"><g class="fills"><g><path class="js-fill" d="M0,151.42L11.76,138.05L24.33,131.42L36.5,129.79L49.07,131.72L61.24,135.99L73.81,141.62L97.74,154L111.12,159.67L123.29,164.52L135.86,168.33L148.02,170.99L160.19,172.45L172.76,172.75L184.93,171.96L197.5,170.22L209.67,167.68L234.81,160.88L246.57,157.01L284.29,145.66L296.45,142.51L308.21,139.9L320.79,137.94L332.95,136.7L345.52,136.23L357.69,136.55L370.26,137.67L382.83,139.56L394.19,142.15L407.57,145.38L419.74,149.16L444.48,157.84L456.24,162.48L493.55,175.72L505.71,179.36L518.29,182.36L530.86,184.55L542.21,185.81L555.6,186L567.76,185.03L580.33,182.81L592.5,179.28L604.26,174.41L616.83,168.2L629,160.68L641.57,151.93L653.74,142.03L678.88,119.39L690.24,107.03L703.62,94.29L715.79,81.45L740.52,56.69L752.69,45.47L765.26,35.52L777.43,27.23L790,21L790,256.18L777.43,256.04L765.26,257.04L752.69,259.2L740.52,262.46L715.79,271.8L703.62,277.55L666.31,296.71L653.74,303.06L629,314.61L616.83,319.51L604.26,323.67L592.5,327.01L580.33,329.48L567.76,331.06L555.6,331.76L542.21,331.62L518.29,329.08L505.71,326.87L456.24,314.93L444.48,311.93L419.74,306.97L407.57,305.32L394.19,304.37L382.83,304.25L370.26,305.03L357.69,306.78L345.52,309.51L332.95,313.24L308.21,323.5L296.45,329.87L246.57,360.31L234.81,368.16L209.67,382.49L197.5,388.46L184.93,393.3L172.76,396.79L160.19,398.74L148.02,399L135.86,397.5L123.29,394.24L111.12,389.32L97.74,382.96L73.81,367.54L61.24,359.76L49.07,353.12L36.5,348.83L24.33,348.41L11.76,353.67L0,366.8Z" style="fill: rgb(240, 240, 240); fill-opacity: 0.25; stroke-width: 0;"/></g></g><g class="errorbars"/><g class="lines"><path class="js-line" d="M0,366.8L11.76,353.67L24.33,348.41L36.5,348.83L49.07,353.12L61.24,359.76L73.81,367.54L97.74,382.96L111.12,389.32L123.29,394.24L135.86,397.5L148.02,399L160.19,398.74L172.76,396.79L184.93,393.3L197.5,388.46L209.67,382.49L234.81,368.16L246.57,360.31L296.45,329.87L308.21,323.5L332.95,313.24L345.52,309.51L357.69,306.78L370.26,305.03L382.83,304.25L394.19,304.37L407.57,305.32L419.74,306.97L444.48,311.93L456.24,314.93L505.71,326.87L518.29,329.08L542.21,331.62L555.6,331.76L567.76,331.06L580.33,329.48L592.5,327.01L604.26,323.67L616.83,319.51L629,314.61L653.74,303.06L666.31,296.71L703.62,277.55L715.79,271.8L740.52,262.46L752.69,259.2L765.26,257.04L777.43,256.04L790,256.18" style="vector-effect: non-scaling-stroke; fill: none; stroke: rgb(128, 128, 128); stroke-opacity: 1; stroke-width: 1px; opacity: 1;"/></g><g class="points"/><g class="text"/></g><g class="trace scatter traced25e85" style="stroke-miterlimit: 2;"><g class="fills"/><g class="errorbars"/><g class="lines"><path class="js-line" d="M0,151.42L11.76,138.05L24.33,131.42L36.5,129.79L49.07,131.72L61.24,135.99L73.81,141.62L97.74,154L111.12,159.67L123.29,164.52L135.86,168.33L148.02,170.99L160.19,172.45L172.76,172.75L184.93,171.96L197.5,170.22L209.67,167.68L234.81,160.88L246.57,157.01L284.29,145.66L296.45,142.51L308.21,139.9L320.79,137.94L332.95,136.7L345.52,136.23L357.69,136.55L370.26,137.67L382.83,139.56L394.19,142.15L407.57,145.38L419.74,149.16L444.48,157.84L456.24,162.48L493.55,175.72L505.71,179.36L518.29,182.36L530.86,184.55L542.21,185.81L555.6,186L567.76,185.03L580.33,182.81L592.5,179.28L604.26,174.41L616.83,168.2L629,160.68L641.57,151.93L653.74,142.03L678.88,119.39L690.24,107.03L703.62,94.29L715.79,81.45L740.52,56.69L752.69,45.47L765.26,35.52L777.43,27.23L790,21" style="vector-effect: non-scaling-stroke; fill: none; stroke: rgb(128, 128, 128); stroke-opacity: 1; stroke-width: 1px; opacity: 1;"/></g><g class="points"/><g class="text"/></g><g class="trace scatter tracebcc8be" style="stroke-miterlimit: 2; opacity: 1;"><g class="fills"/><g class="errorbars"/><g class="lines"><path class="js-line" d="M0.41,256.24L11.76,263.06L24.33,281.91L36.5,275.33L49.07,275.54L61.24,281.3L73.81,300.23L86.38,305.48L98.55,302.72L111.12,290.69L123.29,316.36L135.86,323.86L148.43,313.65L160.19,276.58L172.76,257.37L184.93,259.19L197.5,252.35L209.67,247.19L222.24,223.34L234.81,222.06L246.98,227.38L259.55,248.93L271.71,259.62L284.29,292.54L296.86,277.42L308.21,262.2L320.79,263.07L332.95,249.59L345.52,257.77L357.69,251.78L370.26,261.56L382.83,244.15L395,230.95L407.57,244.54L419.74,243.6L432.31,250.14L444.88,225.06L456.24,224.7L468.81,227.77L480.98,224.48L493.55,235.97L505.71,244L518.29,260.45L530.86,273.98L543.02,274.97L555.6,269.17L567.76,266.73L580.33,256.04L592.91,240.45L604.26,229.94L616.83,236.47L629,241.93L641.57,243.63L653.74,215.47L666.31,194.51L678.88,163.69L691.05,158.75L703.62,164.57L715.79,173.1L728.36,170.07L740.93,139.95L752.69,125.7L765.26,127.59L777.43,95.36L790,82.04" style="vector-effect: non-scaling-stroke; fill: none; stroke: rgb(52, 58, 64); stroke-opacity: 1; stroke-width: 2px; opacity: 1;"/></g><g class="points"/><g class="text"/></g><g class="trace scatter trace71aa59" style="stroke-miterlimit: 2; opacity: 1;"><g class="fills"/><g class="errorbars"/><g class="lines"><path class="js-line" d="M0,268.64L11.76,239.79L24.33,229.78L36.5,231.42L49.07,239.45L73.81,261.14L86.38,270.78L97.74,278.27L111.12,283.28L123.29,285.84L135.86,286.18L148.02,284.7L160.19,281.81L184.93,273.54L197.5,268.9L222.24,259.95L234.81,255.96L246.57,252.4L259.55,249.28L284.29,244.19L296.45,242.09L332.95,236.75L345.52,235.13L394.19,229.49L407.57,228.56L432.31,227.86L444.48,228.25L468.81,230.82L480.98,233.05L505.71,239.17L518.29,242.86L555.6,254.2L567.76,257.23L580.33,259.38L592.5,260.36L604.26,259.86L616.83,257.62L629,253.44L641.57,247.18L653.74,238.8L666.31,228.38L678.88,216.13L690.24,202.4L703.62,187.69L715.79,172.64L740.52,144.74L752.69,133.69L765.26,125.8L777.43,121.9L790,122.58" style="vector-effect: non-scaling-stroke; fill: none; stroke: rgb(255, 215, 0); stroke-opacity: 1; stroke-width: 2px; opacity: 1;"/></g><g class="points"/><g class="text"/></g></g></g><g class="overplot"/><path class="xlines-above crisp" d="M78,521H870" style="fill: none; stroke-width: 2px; stroke: rgb(127, 127, 127); stroke-opacity: 1;"/><path class="ylines-above crisp" d="M79,100V520" style="fill: none; stroke-width: 2px; stroke: rgb(127, 127, 127); stroke-opacity: 1;"/><g class="overlines-above"/><g class="xaxislayer-above"><g class="xtick"><text text-anchor="middle" x="0" y="536.4" transform="translate(216.26,0)" style="font-family: Arial; font-size: 12px; fill: rgb(127, 127, 127); fill-opacity: 1; white-space: pre;">2016</text></g><g class="xtick"><text text-anchor="middle" x="0" y="536.4" transform="translate(364.69,0)" style="font-family: Arial; font-size: 12px; fill: rgb(127, 127, 127); fill-opacity: 1; white-space: pre;">2017</text></g><g class="xtick"><text text-anchor="middle" x="0" y="536.4" transform="translate(512.72,0)" style="font-family: Arial; font-size: 12px; fill: rgb(127, 127, 127); fill-opacity: 1; white-space: pre;">2018</text></g><g class="xtick"><text text-anchor="middle" x="0" y="536.4" transform="translate(660.74,0)" style="font-family: Arial; font-size: 12px; fill: rgb(127, 127, 127); fill-opacity: 1; white-space: pre;">2019</text></g><g class="xtick"><text text-anchor="middle" x="0" y="536.4" transform="translate(808.76,0)" style="font-family: Arial; font-size: 12px; fill: rgb(127, 127, 127); fill-opacity: 1; white-space: pre;">2020</text></g></g><g class="yaxislayer-above"><g class="ytick"><text text-anchor="end" x="75.6" y="4.199999999999999" transform="translate(0,449.38)" style="font-family: Arial; font-size: 12px; fill: rgb(127, 127, 127); fill-opacity: 1; white-space: pre;">1000</text></g><g class="ytick"><text text-anchor="end" x="75.6" y="4.199999999999999" transform="translate(0,374.67)" style="font-family: Arial; font-size: 12px; fill: rgb(127, 127, 127); fill-opacity: 1; white-space: pre;">1200</text></g><g class="ytick"><text text-anchor="end" x="75.6" y="4.199999999999999" transform="translate(0,299.97)" style="font-family: Arial; font-size: 12px; fill: rgb(127, 127, 127); fill-opacity: 1; white-space: pre;">1400</text></g><g class="ytick"><text text-anchor="end" x="75.6" y="4.199999999999999" transform="translate(0,225.26)" style="font-family: Arial; font-size: 12px; fill: rgb(127, 127, 127); fill-opacity: 1; white-space: pre;">1600</text></g><g class="ytick"><text text-anchor="end" x="75.6" y="4.199999999999999" transform="translate(0,150.55)" style="font-family: Arial; font-size: 12px; fill: rgb(127, 127, 127); fill-opacity: 1; white-space: pre;">1800</text></g></g><g class="overaxes-above"/></g></g><g class="polarlayer"/><g class="ternarylayer"/><g class="geolayer"/><g class="funnelarealayer"/><g class="pielayer"/><g class="treemaplayer"/><g class="sunburstlayer"/><g class="glimages"/><defs id="topdefs-87a39b"><g class="clips"/><clipPath id="legend87a39b"><rect width="102" height="86" x="0" y="0"/></clipPath></defs><g class="layer-above"><g class="imagelayer"/><g class="shapelayer"/></g><g class="infolayer"><g class="legend" pointer-events="all" transform="translate(885.8000000000001, 100)"><rect class="bg" shape-rendering="crispEdges" style="stroke: rgb(68, 68, 68); stroke-opacity: 1; fill: rgb(0, 0, 0); fill-opacity: 0; stroke-width: 0px;" width="102" height="86" x="0" y="0"/><g class="scrollbox" transform="translate(0, 0)" clip-path="url('#legend87a39b')"><g class="groups"><g class="traces" transform="translate(0, 14.5)" style="opacity: 1;"><text class="legendtext user-select-none" text-anchor="start" x="40" y="4.680000000000001" style="font-family: Arial; font-size: 12px; fill: rgb(127, 127, 127); fill-opacity: 1; white-space: pre;">Prediction</text><g class="layers" style="opacity: 1;"><g class="legendfill"/><g class="legendlines"><path class="js-line" d="M5,0h30" style="fill: none; stroke: rgb(255, 215, 0); stroke-opacity: 1; stroke-width: 2px;"/></g><g class="legendsymbols"><g class="legendpoints"/></g></g><rect class="legendtoggle" pointer-events="all" x="0" y="-9.5" width="96.015625" height="19" style="cursor: pointer; fill: rgb(0, 0, 0); fill-opacity: 0;"/></g><g class="traces" transform="translate(0, 33.5)" style="opacity: 1;"><text class="legendtext user-select-none" text-anchor="start" x="40" y="4.680000000000001" style="font-family: Arial; font-size: 12px; fill: rgb(127, 127, 127); fill-opacity: 1; white-space: pre;">Gold Price</text><g class="layers" style="opacity: 1;"><g class="legendfill"/><g class="legendlines"><path class="js-line" d="M5,0h30" style="fill: none; stroke: rgb(52, 58, 64); stroke-opacity: 1; stroke-width: 2px;"/></g><g class="legendsymbols"><g class="legendpoints"/></g></g><rect class="legendtoggle" pointer-events="all" x="0" y="-9.5" width="96.015625" height="19" style="cursor: pointer; fill: rgb(0, 0, 0); fill-opacity: 0;"/></g><g class="traces" transform="translate(0, 52.5)" style="opacity: 1;"><text class="legendtext user-select-none" text-anchor="start" x="40" y="4.680000000000001" style="font-family: Arial; font-size: 12px; fill: rgb(127, 127, 127); fill-opacity: 1; white-space: pre;">UCI</text><g class="layers"><g class="legendfill"><path class="js-fill" d="M5,-2h30v6h-30z" style="stroke-width: 0; fill: rgb(240, 240, 240); fill-opacity: 0.25;"/></g><g class="legendlines"><path class="js-line" d="M5,-2h30" style="fill: none; stroke: rgb(128, 128, 128); stroke-opacity: 1; stroke-width: 1px;"/></g><g class="legendsymbols"><g class="legendpoints"/></g></g><rect class="legendtoggle" pointer-events="all" x="0" y="-9.5" width="96.015625" height="19" style="cursor: pointer; fill: rgb(0, 0, 0); fill-opacity: 0;"/></g><g class="traces" transform="translate(0, 71.5)" style="opacity: 1;"><text class="legendtext user-select-none" text-anchor="start" x="40" y="4.680000000000001" style="font-family: Arial; font-size: 12px; fill: rgb(127, 127, 127); fill-opacity: 1; white-space: pre;">LCI</text><g class="layers"><g class="legendfill"/><g class="legendlines"><path class="js-line" d="M5,0h30" style="fill: none; stroke: rgb(128, 128, 128); stroke-opacity: 1; stroke-width: 1px;"/></g><g class="legendsymbols"><g class="legendpoints"/></g></g><rect class="legendtoggle" pointer-events="all" x="0" y="-9.5" width="96.015625" height="19" style="cursor: pointer; fill: rgb(0, 0, 0); fill-opacity: 0;"/></g></g></g><rect class="scrollbar" rx="20" ry="3" width="0" height="0" style="fill: rgb(128, 139, 164); fill-opacity: 1;" x="0" y="0"/></g><g class="g-gtitle"/><g class="g-xtitle"/><g class="g-ytitle"><text class="ytitle" transform="rotate(-90,24.090625000000003,310)" x="24.090625000000003" y="310" text-anchor="middle" style="font-family: Arial; font-size: 14px; fill: rgb(127, 127, 127); opacity: 1; font-weight: normal; white-space: pre;">Gold Price ($/oz)</text></g></g></svg>