<svg class="main-svg" xmlns="http://www.w3.org/2000/svg" xmlns:xlink="http://www.w3.org/1999/xlink" width="700" height="500" viewBox="0 0 700 500"><rect x="0" y="0" width="700" height="500" style="fill: rgb(0, 0, 0); fill-opacity: 0;"/><defs id="defs-6cb285"><g class="clips"><clipPath id="clip6cb285xyplot" class="plotclip"><rect width="509" height="320"/></clipPath><clipPath class="axesclip" id="clip6cb285x"><rect x="80" y="0" width="509" height="500"/></clipPath><clipPath class="axesclip" id="clip6cb285y"><rect x="0" y="100" width="700" height="320"/></clipPath><clipPath class="axesclip" id="clip6cb285xy"><rect x="80" y="100" width="509" height="320"/></clipPath></g><g class="gradients"/></defs><g class="bglayer"><rect class="bg" x="80" y="100" width="509" height="320" style="fill: rgb(0, 0, 0); fill-opacity: 0; stroke-width: 0;"/></g><g class="layer-below"><g class="imagelayer"/><g class="shapelayer"/></g><g class="cartesianlayer"><g class="subplot xy"><g class="layer-subplot"><g class="shapelayer"/><g class="imagelayer"/></g><g class="gridlayer"><g class="x"><path class="xgrid crisp" transform="translate(177.68,0)" d="M0,100v320" style="stroke: rgb(255, 255, 255); stroke-opacity: 1; stroke-width: 1px;"/><path class="xgrid crisp" transform="translate(275.49,0)" d="M0,100v320" style="stroke: rgb(255, 255, 255); stroke-opacity: 1; stroke-width: 1px;"/><path class="xgrid crisp" transform="translate(373.17,0)" d="M0,100v320" style="stroke: rgb(255, 255, 255); stroke-opacity: 1; stroke-width: 1px;"/><path class="xgrid crisp" transform="translate(470.98,0)" d="M0,100v320" style="stroke: rgb(255, 255, 255); stroke-opacity: 1; stroke-width: 1px;"/><path class="xgrid crisp" transform="translate(568.6600000000001,0)" d="M0,100v320" style="stroke: rgb(255, 255, 255); stroke-opacity: 1; stroke-width: 1px;"/></g><g class="y"><path class="ygrid crisp" transform="translate(0,411.99)" d="M80,0h509" style="stroke: rgb(255, 255, 255); stroke-opacity: 1; stroke-width: 1px;"/><path class="ygrid crisp" transform="translate(0,365.15)" d="M80,0h509" style="stroke: rgb(255, 255, 255); stroke-opacity: 1; stroke-width: 1px;"/><path class="ygrid crisp" transform="translate(0,318.31)" d="M80,0h509" style="stroke: rgb(255, 255, 255); stroke-opacity: 1; stroke-width: 1px;"/><path class="ygrid crisp" transform="translate(0,224.62)" d="M80,0h509" style="stroke: rgb(255, 255, 255); stroke-opacity: 1; stroke-width: 1px;"/><path class="ygrid crisp" transform="translate(0,177.78)" d="M80,0h509" style="stroke: rgb(255, 255, 255); stroke-opacity: 1; stroke-width: 1px;"/><path class="ygrid crisp" transform="translate(0,130.93)" d="M80,0h509" style="stroke: rgb(255, 255, 255); stroke-opacity: 1; stroke-width: 1px;"/></g></g><g class="zerolinelayer"><path class="yzl zl crisp" transform="translate(0,271.46000000000004)" d="M80,0h509" style="stroke: rgb(255, 255, 255); stroke-opacity: 1; stroke-width: 2px;"/></g><path class="xlines-below"/><path class="ylines-below"/><g class="overlines-below"/><g class="xaxislayer-below"/><g class="yaxislayer-below"/><g class="overaxes-below"/><g class="plot" transform="translate(80, 100)" clip-path="url('#clip6cb285xyplot')"><g class="scatterlayer mlayer"><g class="trace scatter trace9cb6da" style="stroke-miterlimit: 2;"><g class="fills"><g><path class="js-fill" d="M44.69,146.14L52.99,137.23L56.73,137.23L60.88,134.11L64.9,137.67L73.06,132.77L77.21,132.33L81.35,126.98L85.37,128.32L89.52,133.66L93.53,130.99L97.68,128.76L101.83,132.77L105.71,131.88L109.86,123.41L113.87,121.18L118.02,121.63L122.03,112.72L126.18,109.6L130.33,107.81L134.34,98.01L138.49,94.89L142.5,104.25L146.65,106.92L150.8,106.92L158.69,122.97L162.71,122.97L170.87,138.12L175.02,143.91L179.17,150.6L183.18,159.96L187.33,164.86L191.34,164.86L195.49,170.66L199.64,184.03L203.39,188.93L207.53,190.27L211.55,192.94L215.7,190.71L219.71,192.5L223.86,185.81L228.01,191.16L232.02,200.52L236.17,204.08L240.18,205.87L244.33,208.99L248.48,197.84L252.23,200.07L256.37,211.21L260.39,215.23L264.54,216.12L268.55,219.24L272.7,223.69L276.85,219.24L280.86,217.45L285.01,212.11L289.02,216.56L293.17,216.56L297.32,226.81L301.2,225.03L305.35,226.37L313.51,234.84L317.52,235.28L325.82,245.09L329.83,248.65L333.98,250.44L338,251.33L342.14,256.23L346.29,254.89L350.04,254.45L354.19,248.65L358.2,246.87L362.35,246.87L366.36,246.42L370.51,244.2L378.67,236.17L382.82,233.5L386.83,228.15L390.98,226.37L395.13,225.03L398.88,227.26L403.03,227.71L407.04,226.81L411.19,220.57L415.2,221.02L419.35,220.13L423.5,225.48L427.51,226.81L431.66,224.59L435.67,228.15L439.82,229.49L443.97,224.59L447.72,217.45L451.86,207.65L455.88,208.99L460.03,199.63L464.04,180.02L472.34,155.95L476.35,139.46L480.5,141.69L484.51,132.33L492.81,107.81L496.69,99.34L500.84,63.24L504.85,16L509,37.39L509,172.93L504.85,160.83L500.84,177.46L496.69,185.03L492.81,184.52L488.66,193.09L484.51,203.17L476.35,217.29L472.34,228.89L468.19,244.01L464.04,254.6L460.03,270.22L455.88,278.29L451.86,284.34L447.72,295.93L443.97,299.46L439.82,302.99L435.67,304L431.66,300.98L427.51,293.41L423.5,292.91L419.35,290.39L415.2,292.91L411.19,286.86L407.04,283.83L403.03,278.79L398.88,273.25L395.13,271.23L390.98,261.65L386.83,256.11L382.82,254.6L370.51,261.65L366.36,262.66L358.2,266.69L354.19,269.22L350.04,268.21L346.29,261.15L342.14,266.69L338,270.73L333.98,262.66L329.83,259.13L325.82,253.08L321.67,244.51L317.52,239.47L313.51,225.36L309.36,215.27L305.35,185.53L301.2,161.84L297.32,144.7L289.02,115.96L285.01,107.39L280.86,92.27L276.85,73.61L272.7,59.5L268.55,51.94L264.54,48.41L260.39,48.91L256.37,70.59L252.23,91.26L244.33,115.46L240.18,118.99L236.17,124.03L232.02,139.65L223.86,156.79L219.71,156.29L215.7,158.81L211.55,165.37L207.53,164.36L203.39,161.84L199.64,160.32L195.49,149.74L191.34,145.7L187.33,146.21L183.18,137.64L179.17,128.56L175.02,125.54L170.87,128.06L166.86,128.56L162.71,115.46L158.69,115.46L154.55,107.39L150.8,103.86L146.65,103.36L142.5,101.85L138.49,96.3L134.34,88.74L130.33,95.8L126.18,98.32L122.03,89.24L118.02,87.73L113.87,94.79L109.86,85.21L105.71,91.26L97.68,99.83L93.53,103.86L89.52,109.41L85.37,113.94L81.35,113.44L77.21,106.38L73.06,110.92L69.04,111.93L64.9,103.36L60.88,111.42L52.99,106.38L48.84,100.33L44.69,92.27Z" style="fill: rgb(69, 94, 255); fill-opacity: 0.05; stroke-width: 0;"/></g></g><g class="errorbars"/><g class="lines"><path class="js-line" d="M44.69,92.27L48.84,100.33L52.99,106.38L60.88,111.42L64.9,103.36L69.04,111.93L73.06,110.92L77.21,106.38L81.35,113.44L85.37,113.94L89.52,109.41L93.53,103.86L97.68,99.83L105.71,91.26L109.86,85.21L113.87,94.79L118.02,87.73L122.03,89.24L126.18,98.32L130.33,95.8L134.34,88.74L138.49,96.3L142.5,101.85L146.65,103.36L150.8,103.86L154.55,107.39L158.69,115.46L162.71,115.46L166.86,128.56L170.87,128.06L175.02,125.54L179.17,128.56L183.18,137.64L187.33,146.21L191.34,145.7L195.49,149.74L199.64,160.32L203.39,161.84L207.53,164.36L211.55,165.37L215.7,158.81L219.71,156.29L223.86,156.79L232.02,139.65L236.17,124.03L240.18,118.99L244.33,115.46L252.23,91.26L256.37,70.59L260.39,48.91L264.54,48.41L268.55,51.94L272.7,59.5L276.85,73.61L280.86,92.27L285.01,107.39L289.02,115.96L297.32,144.7L301.2,161.84L305.35,185.53L309.36,215.27L313.51,225.36L317.52,239.47L321.67,244.51L325.82,253.08L329.83,259.13L333.98,262.66L338,270.73L342.14,266.69L346.29,261.15L350.04,268.21L354.19,269.22L358.2,266.69L366.36,262.66L370.51,261.65L382.82,254.6L386.83,256.11L390.98,261.65L395.13,271.23L398.88,273.25L403.03,278.79L407.04,283.83L411.19,286.86L415.2,292.91L419.35,290.39L423.5,292.91L427.51,293.41L431.66,300.98L435.67,304L439.82,302.99L443.97,299.46L447.72,295.93L451.86,284.34L455.88,278.29L460.03,270.22L464.04,254.6L468.19,244.01L472.34,228.89L476.35,217.29L484.51,203.17L488.66,193.09L492.81,184.52L496.69,185.03L500.84,177.46L504.85,160.83L509,172.93" style="vector-effect: non-scaling-stroke; fill: none; stroke: rgb(52, 58, 64); stroke-opacity: 1; stroke-width: 2px; opacity: 1;"/></g><g class="points"/><g class="text"/></g><g class="trace scatter trace21da25" style="stroke-miterlimit: 2;"><g class="fills"/><g class="errorbars"/><g class="lines"><path class="js-line" d="M44.69,146.14L52.99,137.23L56.73,137.23L60.88,134.11L64.9,137.67L73.06,132.77L77.21,132.33L81.35,126.98L85.37,128.32L89.52,133.66L93.53,130.99L97.68,128.76L101.83,132.77L105.71,131.88L109.86,123.41L113.87,121.18L118.02,121.63L122.03,112.72L126.18,109.6L130.33,107.81L134.34,98.01L138.49,94.89L142.5,104.25L146.65,106.92L150.8,106.92L158.69,122.97L162.71,122.97L170.87,138.12L175.02,143.91L179.17,150.6L183.18,159.96L187.33,164.86L191.34,164.86L195.49,170.66L199.64,184.03L203.39,188.93L207.53,190.27L211.55,192.94L215.7,190.71L219.71,192.5L223.86,185.81L228.01,191.16L232.02,200.52L236.17,204.08L240.18,205.87L244.33,208.99L248.48,197.84L252.23,200.07L256.37,211.21L260.39,215.23L264.54,216.12L268.55,219.24L272.7,223.69L276.85,219.24L280.86,217.45L285.01,212.11L289.02,216.56L293.17,216.56L297.32,226.81L301.2,225.03L305.35,226.37L313.51,234.84L317.52,235.28L325.82,245.09L329.83,248.65L333.98,250.44L338,251.33L342.14,256.23L346.29,254.89L350.04,254.45L354.19,248.65L358.2,246.87L362.35,246.87L366.36,246.42L370.51,244.2L378.67,236.17L382.82,233.5L386.83,228.15L390.98,226.37L395.13,225.03L398.88,227.26L403.03,227.71L407.04,226.81L411.19,220.57L415.2,221.02L419.35,220.13L423.5,225.48L427.51,226.81L431.66,224.59L435.67,228.15L439.82,229.49L443.97,224.59L447.72,217.45L451.86,207.65L455.88,208.99L460.03,199.63L464.04,180.02L472.34,155.95L476.35,139.46L480.5,141.69L484.51,132.33L492.81,107.81L496.69,99.34L500.84,63.24L504.85,16L509,37.39" style="vector-effect: non-scaling-stroke; fill: none; stroke: rgb(23, 162, 184); stroke-opacity: 1; stroke-width: 2px; opacity: 1;"/></g><g class="points"/><g class="text"/></g></g></g><g class="overplot"/><path class="xlines-above crisp" d="M0,0" style="fill: none;"/><path class="ylines-above crisp" d="M0,0" style="fill: none;"/><g class="overlines-above"/><g class="xaxislayer-above"><g class="xtick"><text text-anchor="middle" x="0" y="433" transform="translate(80,0)" style="font-family: 'Open Sans', verdana, arial, sans-serif; font-size: 12px; fill: rgb(42, 63, 95); fill-opacity: 1; white-space: pre;">2010</text></g><g class="xtick"><text text-anchor="middle" x="0" y="433" transform="translate(177.68,0)" style="font-family: 'Open Sans', verdana, arial, sans-serif; font-size: 12px; fill: rgb(42, 63, 95); fill-opacity: 1; white-space: pre;">2012</text></g><g class="xtick"><text text-anchor="middle" x="0" y="433" transform="translate(275.49,0)" style="font-family: 'Open Sans', verdana, arial, sans-serif; font-size: 12px; fill: rgb(42, 63, 95); fill-opacity: 1; white-space: pre;">2014</text></g><g class="xtick"><text text-anchor="middle" x="0" y="433" transform="translate(373.17,0)" style="font-family: 'Open Sans', verdana, arial, sans-serif; font-size: 12px; fill: rgb(42, 63, 95); fill-opacity: 1; white-space: pre;">2016</text></g><g class="xtick"><text text-anchor="middle" x="0" y="433" transform="translate(470.98,0)" style="font-family: 'Open Sans', verdana, arial, sans-serif; font-size: 12px; fill: rgb(42, 63, 95); fill-opacity: 1; white-space: pre;">2018</text></g><g class="xtick"><text text-anchor="middle" x="0" y="433" transform="translate(568.6600000000001,0)" style="font-family: 'Open Sans', verdana, arial, sans-serif; font-size: 12px; fill: rgb(42, 63, 95); fill-opacity: 1; white-space: pre;">2020</text></g></g><g class="yaxislayer-above"><g class="ytick"><text text-anchor="end" x="79" y="4.199999999999999" transform="translate(0,411.99)" style="font-family: 'Open Sans', verdana, arial, sans-serif; font-size: 12px; fill: rgb(42, 63, 95); fill-opacity: 1; white-space: pre;">−1.5</text></g><g class="ytick"><text text-anchor="end" x="79" y="4.199999999999999" transform="translate(0,365.15)" style="font-family: 'Open Sans', verdana, arial, sans-serif; font-size: 12px; fill: rgb(42, 63, 95); fill-opacity: 1; white-space: pre;">−1</text></g><g class="ytick"><text text-anchor="end" x="79" y="4.199999999999999" transform="translate(0,318.31)" style="font-family: 'Open Sans', verdana, arial, sans-serif; font-size: 12px; fill: rgb(42, 63, 95); fill-opacity: 1; white-space: pre;">−0.5</text></g><g class="ytick"><text text-anchor="end" x="79" y="4.199999999999999" transform="translate(0,271.46000000000004)" style="font-family: 'Open Sans', verdana, arial, sans-serif; font-size: 12px; fill: rgb(42, 63, 95); fill-opacity: 1; white-space: pre;">0</text></g><g class="ytick"><text text-anchor="end" x="79" y="4.199999999999999" transform="translate(0,224.62)" style="font-family: 'Open Sans', verdana, arial, sans-serif; font-size: 12px; fill: rgb(42, 63, 95); fill-opacity: 1; white-space: pre;">0.5</text></g><g class="ytick"><text text-anchor="end" x="79" y="4.199999999999999" transform="translate(0,177.78)" style="font-family: 'Open Sans', verdana, arial, sans-serif; font-size: 12px; fill: rgb(42, 63, 95); fill-opacity: 1; white-space: pre;">1</text></g><g class="ytick"><text text-anchor="end" x="79" y="4.199999999999999" transform="translate(0,130.93)" style="font-family: 'Open Sans', verdana, arial, sans-serif; font-size: 12px; fill: rgb(42, 63, 95); fill-opacity: 1; white-space: pre;">1.5</text></g></g><g class="overaxes-above"/></g></g><g class="polarlayer"/><g class="ternarylayer"/><g class="geolayer"/><g class="funnelarealayer"/><g class="pielayer"/><g class="treemaplayer"/><g class="sunburstlayer"/><g class="glimages"/><defs id="topdefs-6cb285"><g class="clips"/><clipPath id="legend6cb285"><rect width="89" height="48" x="0" y="0"/></clipPath></defs><g class="layer-above"><g class="imagelayer"/><g class="shapelayer"/></g><g class="infolayer"><g class="legend" pointer-events="all" transform="translate(599.1800000000001, 100)"><rect class="bg" shape-rendering="crispEdges" width="89" height="48" x="0" y="0" style="stroke: rgb(68, 68, 68); stroke-opacity: 1; fill: rgb(0, 0, 0); fill-opacity: 0; stroke-width: 0px;"/><g class="scrollbox" transform="translate(0, 0)" clip-path="url('#legend6cb285')"><g class="groups"><g class="traces" transform="translate(0, 14.5)" style="opacity: 1;"><text class="legendtext user-select-none" text-anchor="start" x="40" y="4.680000000000001" style="font-family: 'Open Sans', verdana, arial, sans-serif; font-size: 12px; fill: rgb(42, 63, 95); fill-opacity: 1; white-space: pre;">Copper</text><g class="layers"><g class="legendfill"><path class="js-fill" d="M5,-2h30v6h-30z" style="stroke-width: 0; fill: rgb(69, 94, 255); fill-opacity: 0.05;"/></g><g class="legendlines"><path class="js-line" d="M5,-2h30" style="fill: none; stroke: rgb(23, 162, 184); stroke-opacity: 1; stroke-width: 2px;"/></g><g class="legendsymbols"><g class="legendpoints"/></g></g><rect class="legendtoggle" pointer-events="all" x="0" y="-9.5" width="83.75" height="19" style="cursor: pointer; fill: rgb(0, 0, 0); fill-opacity: 0;"/></g><g class="traces" transform="translate(0, 33.5)" style="opacity: 1;"><text class="legendtext user-select-none" text-anchor="start" x="40" y="4.680000000000001" style="font-family: 'Open Sans', verdana, arial, sans-serif; font-size: 12px; fill: rgb(42, 63, 95); fill-opacity: 1; white-space: pre;">Iron</text><g class="layers"><g class="legendfill"/><g class="legendlines"><path class="js-line" d="M5,0h30" style="fill: none; stroke: rgb(52, 58, 64); stroke-opacity: 1; stroke-width: 2px;"/></g><g class="legendsymbols"><g class="legendpoints"/></g></g><rect class="legendtoggle" pointer-events="all" x="0" y="-9.5" width="83.75" height="19" style="cursor: pointer; fill: rgb(0, 0, 0); fill-opacity: 0;"/></g></g></g><rect class="scrollbar" rx="20" ry="3" width="0" height="0" x="0" y="0" style="fill: rgb(128, 139, 164); fill-opacity: 1;"/></g><g class="g-gtitle"/><g class="g-xtitle"/><g class="g-ytitle"><text class="ytitle" transform="rotate(-90,24.746875000000003,260)" x="24.746875000000003" y="260" text-anchor="middle" style="font-family: 'Open Sans', verdana, arial, sans-serif; font-size: 14px; fill: rgb(42, 63, 95); opacity: 1; font-weight: normal; white-space: pre;">Impact Index</text></g></g></svg>